<?xml version="1.0" encoding="us-ascii" standalone="no"?><svg xmlns="http://www.w3.org/2000/svg" xmlns:xlink="http://www.w3.org/1999/xlink" contentStyleType="text/css" height="744px" preserveAspectRatio="none" style="width:1124px;height:744px;background:#FFFFFF;" version="1.1" viewBox="0 0 1124 744" width="1124px" zoomAndPan="magnify"><defs/><g><text fill="#000000" font-family="sans-serif" font-size="14" font-weight="bold" lengthAdjust="spacing" textLength="217" x="451.25" y="29.5332">Update Patient Medical Record</text><rect fill="#FFFFFF" height="182.1094" style="stroke:#181818;stroke-width:1.0;" width="10" x="206" y="108.5703"/><rect fill="#FFFFFF" height="362.0547" style="stroke:#181818;stroke-width:1.0;" width="10" x="206" y="321.0313"/><rect fill="#FFFFFF" height="121.4063" style="stroke:#181818;stroke-width:1.0;" width="10" x="404" y="138.9219"/><rect fill="#FFFFFF" height="60.7031" style="stroke:#181818;stroke-width:1.0;" width="10" x="604.5" y="169.2734"/><rect fill="#FFFFFF" height="271" style="stroke:#181818;stroke-width:1.0;" width="10" x="604.5" y="381.7344"/><rect fill="#FFFFFF" height="210.2969" style="stroke:#181818;stroke-width:1.0;" width="10" x="870.5" y="412.0859"/><rect fill="none" height="202.4609" style="stroke:#000000;stroke-width:1.5;" width="921.5" x="3" y="488.625"/><line style="stroke:#181818;stroke-width:0.5;stroke-dasharray:5.0,5.0;" x1="210.5" x2="210.5" y1="76.2188" y2="708.0859"/><line style="stroke:#181818;stroke-width:0.5;stroke-dasharray:5.0,5.0;" x1="409" x2="409" y1="76.2188" y2="708.0859"/><line style="stroke:#181818;stroke-width:0.5;stroke-dasharray:5.0,5.0;" x1="609" x2="609" y1="76.2188" y2="708.0859"/><line style="stroke:#181818;stroke-width:0.5;stroke-dasharray:5.0,5.0;" x1="715" x2="715" y1="76.2188" y2="708.0859"/><line style="stroke:#181818;stroke-width:0.5;stroke-dasharray:5.0,5.0;" x1="875.5" x2="875.5" y1="76.2188" y2="708.0859"/><rect fill="#E2E2F0" height="31.6094" rx="2.5" ry="2.5" style="stroke:#181818;stroke-width:0.5;" width="41" x="190.5" y="43.6094"/><text fill="#000000" font-family="sans-serif" font-size="14" lengthAdjust="spacing" textLength="27" x="197.5" y="65.1426">SPA</text><rect fill="#E2E2F0" height="31.6094" rx="2.5" ry="2.5" style="stroke:#181818;stroke-width:0.5;" width="41" x="190.5" y="707.0859"/><text fill="#000000" font-family="sans-serif" font-size="14" lengthAdjust="spacing" textLength="27" x="197.5" y="728.6191">SPA</text><rect fill="#E2E2F0" height="31.6094" rx="2.5" ry="2.5" style="stroke:#181818;stroke-width:0.5;" width="226" x="296" y="43.6094"/><text fill="#000000" font-family="sans-serif" font-size="14" lengthAdjust="spacing" textLength="212" x="303" y="65.1426">UpdateMedicalRecordComponent</text><rect fill="#E2E2F0" height="31.6094" rx="2.5" ry="2.5" style="stroke:#181818;stroke-width:0.5;" width="226" x="296" y="707.0859"/><text fill="#000000" font-family="sans-serif" font-size="14" lengthAdjust="spacing" textLength="212" x="303" y="728.6191">UpdateMedicalRecordComponent</text><rect fill="#E2E2F0" height="31.6094" rx="2.5" ry="2.5" style="stroke:#181818;stroke-width:0.5;" width="155" x="532" y="43.6094"/><text fill="#000000" font-family="sans-serif" font-size="14" lengthAdjust="spacing" textLength="141" x="539" y="65.1426">MedicalRecordService</text><rect fill="#E2E2F0" height="31.6094" rx="2.5" ry="2.5" style="stroke:#181818;stroke-width:0.5;" width="155" x="532" y="707.0859"/><text fill="#000000" font-family="sans-serif" font-size="14" lengthAdjust="spacing" textLength="141" x="539" y="728.6191">MedicalRecordService</text><rect fill="#E2E2F0" height="31.6094" rx="2.5" ry="2.5" style="stroke:#181818;stroke-width:0.5;" width="36" x="697" y="43.6094"/><text fill="#000000" font-family="sans-serif" font-size="14" lengthAdjust="spacing" textLength="22" x="704" y="65.1426">Dto</text><rect fill="#E2E2F0" height="31.6094" rx="2.5" ry="2.5" style="stroke:#181818;stroke-width:0.5;" width="36" x="697" y="707.0859"/><text fill="#000000" font-family="sans-serif" font-size="14" lengthAdjust="spacing" textLength="22" x="704" y="728.6191">Dto</text><rect fill="#E2E2F0" height="31.6094" rx="2.5" ry="2.5" style="stroke:#181818;stroke-width:0.5;" width="78" x="836.5" y="43.6094"/><text fill="#000000" font-family="sans-serif" font-size="14" lengthAdjust="spacing" textLength="64" x="843.5" y="65.1426">BackEnd2</text><rect fill="#E2E2F0" height="31.6094" rx="2.5" ry="2.5" style="stroke:#181818;stroke-width:0.5;" width="78" x="836.5" y="707.0859"/><text fill="#000000" font-family="sans-serif" font-size="14" lengthAdjust="spacing" textLength="64" x="843.5" y="728.6191">BackEnd2</text><rect fill="#FFFFFF" height="182.1094" style="stroke:#181818;stroke-width:1.0;" width="10" x="206" y="108.5703"/><rect fill="#FFFFFF" height="362.0547" style="stroke:#181818;stroke-width:1.0;" width="10" x="206" y="321.0313"/><rect fill="#FFFFFF" height="121.4063" style="stroke:#181818;stroke-width:1.0;" width="10" x="404" y="138.9219"/><rect fill="#FFFFFF" height="60.7031" style="stroke:#181818;stroke-width:1.0;" width="10" x="604.5" y="169.2734"/><rect fill="#FFFFFF" height="271" style="stroke:#181818;stroke-width:1.0;" width="10" x="604.5" y="381.7344"/><rect fill="#FFFFFF" height="210.2969" style="stroke:#181818;stroke-width:1.0;" width="10" x="870.5" y="412.0859"/><polygon fill="#181818" points="194,104.5703,204,108.5703,194,112.5703,198,108.5703" style="stroke:#181818;stroke-width:1.0;"/><line style="stroke:#181818;stroke-width:1.0;" x1="0" x2="200" y1="108.5703" y2="108.5703"/><text fill="#000000" font-family="sans-serif" font-size="13" lengthAdjust="spacing" textLength="180" x="7" y="103.7139">Update Patient Medical Record</text><polygon fill="#181818" points="392,134.9219,402,138.9219,392,142.9219,396,138.9219" style="stroke:#181818;stroke-width:1.0;"/><line style="stroke:#181818;stroke-width:1.0;" x1="216" x2="398" y1="138.9219" y2="138.9219"/><text fill="#000000" font-family="sans-serif" font-size="13" lengthAdjust="spacing" textLength="138" x="223" y="134.0654">getMedicalRecordById()</text><polygon fill="#181818" points="592.5,165.2734,602.5,169.2734,592.5,173.2734,596.5,169.2734" style="stroke:#181818;stroke-width:1.0;"/><line style="stroke:#181818;stroke-width:1.0;" x1="414" x2="598.5" y1="169.2734" y2="169.2734"/><text fill="#000000" font-family="sans-serif" font-size="13" lengthAdjust="spacing" textLength="138" x="421" y="164.417">getMedicalRecordById()</text><polygon fill="#181818" points="863.5,195.625,873.5,199.625,863.5,203.625,867.5,199.625" style="stroke:#181818;stroke-width:1.0;"/><line style="stroke:#181818;stroke-width:1.0;" x1="614.5" x2="869.5" y1="199.625" y2="199.625"/><text fill="#000000" font-family="sans-serif" font-size="13" lengthAdjust="spacing" textLength="237" x="621.5" y="194.7686">HTTP Request: GET /medicalRecords/:id</text><polygon fill="#181818" points="425,225.9766,415,229.9766,425,233.9766,421,229.9766" style="stroke:#181818;stroke-width:1.0;"/><line style="stroke:#181818;stroke-width:1.0;stroke-dasharray:2.0,2.0;" x1="419" x2="608.5" y1="229.9766" y2="229.9766"/><text fill="#000000" font-family="sans-serif" font-size="13" lengthAdjust="spacing" textLength="18" x="431" y="225.1201">dto</text><polygon fill="#181818" points="227,256.3281,217,260.3281,227,264.3281,223,260.3281" style="stroke:#181818;stroke-width:1.0;"/><line style="stroke:#181818;stroke-width:1.0;stroke-dasharray:2.0,2.0;" x1="221" x2="408" y1="260.3281" y2="260.3281"/><text fill="#000000" font-family="sans-serif" font-size="13" lengthAdjust="spacing" textLength="18" x="233" y="255.4717">dto</text><polygon fill="#181818" points="11,286.6797,1,290.6797,11,294.6797,7,290.6797" style="stroke:#181818;stroke-width:1.0;"/><line style="stroke:#181818;stroke-width:1.0;stroke-dasharray:2.0,2.0;" x1="5" x2="210" y1="290.6797" y2="290.6797"/><text fill="#000000" font-family="sans-serif" font-size="13" lengthAdjust="spacing" textLength="146" x="17" y="285.8232">show form to update data</text><polygon fill="#181818" points="194,317.0313,204,321.0313,194,325.0313,198,321.0313" style="stroke:#181818;stroke-width:1.0;"/><line style="stroke:#181818;stroke-width:1.0;" x1="0" x2="200" y1="321.0313" y2="321.0313"/><text fill="#000000" font-family="sans-serif" font-size="13" lengthAdjust="spacing" textLength="68" x="7" y="316.1748">update data</text><polygon fill="#181818" points="397,347.3828,407,351.3828,397,355.3828,401,351.3828" style="stroke:#181818;stroke-width:1.0;"/><line style="stroke:#181818;stroke-width:1.0;" x1="216" x2="403" y1="351.3828" y2="351.3828"/><text fill="#000000" font-family="sans-serif" font-size="13" lengthAdjust="spacing" textLength="169" x="223" y="346.5264">updateMedicalRecord(id, dto)</text><polygon fill="#181818" points="592.5,377.7344,602.5,381.7344,592.5,385.7344,596.5,381.7344" style="stroke:#181818;stroke-width:1.0;"/><line style="stroke:#181818;stroke-width:1.0;" x1="409" x2="598.5" y1="381.7344" y2="381.7344"/><text fill="#000000" font-family="sans-serif" font-size="13" lengthAdjust="spacing" textLength="169" x="416" y="376.8779">updateMedicalRecord(id, dto)</text><polygon fill="#181818" points="858.5,408.0859,868.5,412.0859,858.5,416.0859,862.5,412.0859" style="stroke:#181818;stroke-width:1.0;"/><line style="stroke:#181818;stroke-width:1.0;" x1="614.5" x2="864.5" y1="412.0859" y2="412.0859"/><text fill="#000000" font-family="sans-serif" font-size="13" lengthAdjust="spacing" textLength="236" x="621.5" y="407.2295">HTTP Request: PUT /medicalRecords/:id</text><rect fill="none" height="56.5391" style="stroke:#000000;stroke-width:1.5;" width="285" x="833.5" y="420.0859"/><path d="M833.5,420.0859 L895.5,420.0859 L895.5,428.0859 L885.5,438.0859 L833.5,438.0859 L833.5,420.0859 " fill="#EEEEEE" style="stroke:#000000;stroke-width:2.0;"/><text fill="#000000" font-family="sans-serif" font-size="13" font-weight="bold" lengthAdjust="spacing" textLength="17" x="846.5" y="435.5811">ref</text><text fill="#000000" font-family="sans-serif" font-size="12" lengthAdjust="spacing" textLength="123" x="914.5" y="454.543">update medical record</text><text fill="#000000" font-family="sans-serif" font-size="12" lengthAdjust="spacing" textLength="277" x="837.5" y="469.6367">../backend/C4/level3/SequenceDiagram_Lvl3.puml</text><path d="M3,488.625 L64,488.625 L64,496.9766 L54,506.9766 L3,506.9766 L3,488.625 " fill="#EEEEEE" style="stroke:#000000;stroke-width:1.5;"/><rect fill="none" height="202.4609" style="stroke:#000000;stroke-width:1.5;" width="921.5" x="3" y="488.625"/><text fill="#000000" font-family="sans-serif" font-size="13" font-weight="bold" lengthAdjust="spacing" textLength="16" x="18" y="503.1201">alt</text><text fill="#000000" font-family="sans-serif" font-size="11" font-weight="bold" lengthAdjust="spacing" textLength="103" x="79" y="502.0439">[User not Allowed]</text><polygon fill="#181818" points="625.5,525.3281,615.5,529.3281,625.5,533.3281,621.5,529.3281" style="stroke:#181818;stroke-width:1.0;"/><line style="stroke:#181818;stroke-width:1.0;stroke-dasharray:2.0,2.0;" x1="619.5" x2="869.5" y1="529.3281" y2="529.3281"/><text fill="#000000" font-family="sans-serif" font-size="13" lengthAdjust="spacing" textLength="61" x="631.5" y="524.4717">status 401</text><polygon fill="#181818" points="227,555.6797,217,559.6797,227,563.6797,223,559.6797" style="stroke:#181818;stroke-width:1.0;"/><line style="stroke:#181818;stroke-width:1.0;stroke-dasharray:2.0,2.0;" x1="221" x2="603.5" y1="559.6797" y2="559.6797"/><text fill="#000000" font-family="sans-serif" font-size="13" lengthAdjust="spacing" textLength="61" x="233" y="554.8232">status 401</text><polygon fill="#181818" points="11,586.0313,1,590.0313,11,594.0313,7,590.0313" style="stroke:#181818;stroke-width:1.0;"/><line style="stroke:#181818;stroke-width:1.0;stroke-dasharray:2.0,2.0;" x1="5" x2="205" y1="590.0313" y2="590.0313"/><text fill="#000000" font-family="sans-serif" font-size="13" lengthAdjust="spacing" textLength="172" x="17" y="585.1748">Displays status 401 message</text><line style="stroke:#000000;stroke-width:1.0;stroke-dasharray:2.0,2.0;" x1="3" x2="924.5" y1="599.0313" y2="599.0313"/><polygon fill="#181818" points="625.5,618.3828,615.5,622.3828,625.5,626.3828,621.5,622.3828" style="stroke:#181818;stroke-width:1.0;"/><line style="stroke:#181818;stroke-width:1.0;stroke-dasharray:2.0,2.0;" x1="619.5" x2="874.5" y1="622.3828" y2="622.3828"/><text fill="#000000" font-family="sans-serif" font-size="13" lengthAdjust="spacing" textLength="61" x="631.5" y="617.5264">status 200</text><polygon fill="#181818" points="227,648.7344,217,652.7344,227,656.7344,223,652.7344" style="stroke:#181818;stroke-width:1.0;"/><line style="stroke:#181818;stroke-width:1.0;stroke-dasharray:2.0,2.0;" x1="221" x2="608.5" y1="652.7344" y2="652.7344"/><text fill="#000000" font-family="sans-serif" font-size="13" lengthAdjust="spacing" textLength="61" x="233" y="647.8779">status 200</text><polygon fill="#181818" points="11,679.0859,1,683.0859,11,687.0859,7,683.0859" style="stroke:#181818;stroke-width:1.0;"/><line style="stroke:#181818;stroke-width:1.0;stroke-dasharray:2.0,2.0;" x1="5" x2="210" y1="683.0859" y2="683.0859"/><text fill="#000000" font-family="sans-serif" font-size="13" lengthAdjust="spacing" textLength="172" x="17" y="678.2295">Displays status 200 message</text><!--SRC=[ZLDDJyCm3BtdLrWxWKJNyN6gq2JO9a02QMBR6ON66n5fKvgq4_yUjytwkG4vL6riFx_dvrff5S9eamXk4PRSIemjlA2G8LVmYg5EnOYnXATMXZBX51ojbdSZu0PCmhk12iKLLxKp7IKw9ioo8fUuVz42LRUkKx72D9SXLXsgzsxstEeoAApk1kvv-Bc8nLKPTH-CCMzAH0FuLI9ZG8U7LkP5Kg4CtA5tRzem3s27jaFu_lj9d9tN-JL88nPwfuuGjKhXdwW3zCDe1Xaku4tT10AwUrolbwJqAqDZ0tXOhC6FsisC7qXn4icRDkgBeH_Y0WTiXWhTz4_K3MV4RZslh30VUWzRdKPWDMILUVJWhDsMV78DsXa37qiFMnPcmqKza-AYO5cDdFLiEWY4VzGEBQejWTgJhYFBpN57QgXccrFSWiunhQ_whhb1E3H8g_tkPut7_Zi1O2pysOslC4TrxQyAFd68SybtAO_UddDrFKwoI37A8wGjuyh2XkH0h2tSAQNts60xcMIWuqRJCfRRpC3DvBBzGnKUkyK_ak0sO2vDelYtQM6GAcFu3XagW_2VnbUJ2HnRlFxqZfAYuj-M_GJFekM1PszNQOm_]--></g></svg>