<?xml version="1.0" encoding="us-ascii" standalone="no"?><svg xmlns="http://www.w3.org/2000/svg" xmlns:xlink="http://www.w3.org/1999/xlink" contentStyleType="text/css" height="930px" preserveAspectRatio="none" style="width:1323px;height:930px;background:#FFFFFF;" version="1.1" viewBox="0 0 1323 930" width="1323px" zoomAndPan="magnify"><defs/><g><text fill="#000000" font-family="sans-serif" font-size="14" font-weight="bold" lengthAdjust="spacing" textLength="248" x="538.5" y="29.5332">Create New Patient Profile - Level 3</text><rect fill="#FFFFFF" height="701.1875" style="stroke:#181818;stroke-width:1.0;" width="10" x="480" y="139.5703"/><rect fill="#FFFFFF" height="670.8359" style="stroke:#181818;stroke-width:1.0;" width="10" x="602.5" y="169.9219"/><rect fill="#FFFFFF" height="60.7031" style="stroke:#181818;stroke-width:1.0;" width="10" x="840.5" y="268.9766"/><rect fill="none" height="605.4844" style="stroke:#000000;stroke-width:1.5;" width="1313" x="3" y="228.2734"/><rect fill="none" height="288.4844" style="stroke:#000000;stroke-width:1.5;" width="1303" x="3" y="448.7344"/><line style="stroke:#181818;stroke-width:0.5;stroke-dasharray:5.0,5.0;" x1="485" x2="485" y1="107.2188" y2="850.7578"/><line style="stroke:#181818;stroke-width:0.5;stroke-dasharray:5.0,5.0;" x1="607" x2="607" y1="107.2188" y2="850.7578"/><line style="stroke:#181818;stroke-width:0.5;stroke-dasharray:5.0,5.0;" x1="845.5" x2="845.5" y1="107.2188" y2="850.7578"/><line style="stroke:#181818;stroke-width:0.5;stroke-dasharray:5.0,5.0;" x1="947.5" x2="947.5" y1="107.2188" y2="850.7578"/><line style="stroke:#181818;stroke-width:0.5;stroke-dasharray:5.0,5.0;" x1="1019.5" x2="1019.5" y1="107.2188" y2="850.7578"/><line style="stroke:#181818;stroke-width:0.5;stroke-dasharray:5.0,5.0;" x1="1110.5" x2="1110.5" y1="107.2188" y2="850.7578"/><rect fill="#E2E2F0" height="31.6094" rx="2.5" ry="2.5" style="stroke:#181818;stroke-width:0.5;" width="120" x="425" y="74.6094"/><text fill="#000000" font-family="sans-serif" font-size="14" lengthAdjust="spacing" textLength="106" x="432" y="96.1426">PatientController</text><rect fill="#E2E2F0" height="31.6094" rx="2.5" ry="2.5" style="stroke:#181818;stroke-width:0.5;" width="120" x="425" y="849.7578"/><text fill="#000000" font-family="sans-serif" font-size="14" lengthAdjust="spacing" textLength="106" x="432" y="871.291">PatientController</text><rect fill="#E2E2F0" height="31.6094" rx="2.5" ry="2.5" style="stroke:#181818;stroke-width:0.5;" width="105" x="555" y="74.6094"/><text fill="#000000" font-family="sans-serif" font-size="14" lengthAdjust="spacing" textLength="91" x="562" y="96.1426">PatientService</text><rect fill="#E2E2F0" height="31.6094" rx="2.5" ry="2.5" style="stroke:#181818;stroke-width:0.5;" width="105" x="555" y="849.7578"/><text fill="#000000" font-family="sans-serif" font-size="14" lengthAdjust="spacing" textLength="91" x="562" y="871.291">PatientService</text><rect fill="#E2E2F0" height="31.6094" rx="2.5" ry="2.5" style="stroke:#181818;stroke-width:0.5;" width="126" x="782.5" y="74.6094"/><text fill="#000000" font-family="sans-serif" font-size="14" lengthAdjust="spacing" textLength="112" x="789.5" y="96.1426">PatientRepository</text><rect fill="#E2E2F0" height="31.6094" rx="2.5" ry="2.5" style="stroke:#181818;stroke-width:0.5;" width="126" x="782.5" y="849.7578"/><text fill="#000000" font-family="sans-serif" font-size="14" lengthAdjust="spacing" textLength="112" x="789.5" y="871.291">PatientRepository</text><rect fill="#E2E2F0" height="31.6094" rx="2.5" ry="2.5" style="stroke:#181818;stroke-width:0.5;" width="58" x="918.5" y="74.6094"/><text fill="#000000" font-family="sans-serif" font-size="14" lengthAdjust="spacing" textLength="44" x="925.5" y="96.1426">Patient</text><rect fill="#E2E2F0" height="31.6094" rx="2.5" ry="2.5" style="stroke:#181818;stroke-width:0.5;" width="58" x="918.5" y="849.7578"/><text fill="#000000" font-family="sans-serif" font-size="14" lengthAdjust="spacing" textLength="44" x="925.5" y="871.291">Patient</text><text fill="#000000" font-family="sans-serif" font-size="14" lengthAdjust="spacing" textLength="61" x="986.5" y="104.1426">Database</text><path d="M1002,53.6094 C1002,43.6094 1020,43.6094 1020,43.6094 C1020,43.6094 1038,43.6094 1038,53.6094 L1038,79.6094 C1038,89.6094 1020,89.6094 1020,89.6094 C1020,89.6094 1002,89.6094 1002,79.6094 L1002,53.6094 " fill="#E2E2F0" style="stroke:#181818;stroke-width:1.5;"/><path d="M1002,53.6094 C1002,63.6094 1020,63.6094 1020,63.6094 C1020,63.6094 1038,63.6094 1038,53.6094 " fill="none" style="stroke:#181818;stroke-width:1.5;"/><text fill="#000000" font-family="sans-serif" font-size="14" lengthAdjust="spacing" textLength="61" x="986.5" y="864.291">Database</text><path d="M1002,877.3672 C1002,867.3672 1020,867.3672 1020,867.3672 C1020,867.3672 1038,867.3672 1038,877.3672 L1038,903.3672 C1038,913.3672 1020,913.3672 1020,913.3672 C1020,913.3672 1002,913.3672 1002,903.3672 L1002,877.3672 " fill="#E2E2F0" style="stroke:#181818;stroke-width:1.5;"/><path d="M1002,877.3672 C1002,887.3672 1020,887.3672 1020,887.3672 C1020,887.3672 1038,887.3672 1038,877.3672 " fill="none" style="stroke:#181818;stroke-width:1.5;"/><rect fill="#E2E2F0" height="31.6094" rx="2.5" ry="2.5" style="stroke:#181818;stroke-width:0.5;" width="95" x="1063.5" y="74.6094"/><text fill="#000000" font-family="sans-serif" font-size="14" lengthAdjust="spacing" textLength="81" x="1070.5" y="96.1426">EmailService</text><rect fill="#E2E2F0" height="31.6094" rx="2.5" ry="2.5" style="stroke:#181818;stroke-width:0.5;" width="95" x="1063.5" y="849.7578"/><text fill="#000000" font-family="sans-serif" font-size="14" lengthAdjust="spacing" textLength="81" x="1070.5" y="871.291">EmailService</text><rect fill="#FFFFFF" height="701.1875" style="stroke:#181818;stroke-width:1.0;" width="10" x="480" y="139.5703"/><rect fill="#FFFFFF" height="670.8359" style="stroke:#181818;stroke-width:1.0;" width="10" x="602.5" y="169.9219"/><rect fill="#FFFFFF" height="60.7031" style="stroke:#181818;stroke-width:1.0;" width="10" x="840.5" y="268.9766"/><polygon fill="#181818" points="468,135.5703,478,139.5703,468,143.5703,472,139.5703" style="stroke:#181818;stroke-width:1.0;"/><line style="stroke:#181818;stroke-width:1.0;" x1="0" x2="474" y1="139.5703" y2="139.5703"/><text fill="#000000" font-family="sans-serif" font-size="13" lengthAdjust="spacing" textLength="454" x="7" y="134.7139">Input patient details (first name, last name, DOB, contact info, medical history)</text><polygon fill="#181818" points="590.5,165.9219,600.5,169.9219,590.5,173.9219,594.5,169.9219" style="stroke:#181818;stroke-width:1.0;"/><line style="stroke:#181818;stroke-width:1.0;" x1="490" x2="596.5" y1="169.9219" y2="169.9219"/><text fill="#000000" font-family="sans-serif" font-size="13" lengthAdjust="spacing" textLength="86" x="497" y="165.0654">AddAsync(dto)</text><line style="stroke:#181818;stroke-width:1.0;" x1="612.5" x2="654.5" y1="200.2734" y2="200.2734"/><line style="stroke:#181818;stroke-width:1.0;" x1="654.5" x2="654.5" y1="200.2734" y2="213.2734"/><line style="stroke:#181818;stroke-width:1.0;" x1="613.5" x2="654.5" y1="213.2734" y2="213.2734"/><polygon fill="#181818" points="623.5,209.2734,613.5,213.2734,623.5,217.2734,619.5,213.2734" style="stroke:#181818;stroke-width:1.0;"/><text fill="#000000" font-family="sans-serif" font-size="13" lengthAdjust="spacing" textLength="101" x="619.5" y="195.417">ValidateInput(dto)</text><path d="M3,228.2734 L64,228.2734 L64,236.625 L54,246.625 L3,246.625 L3,228.2734 " fill="#EEEEEE" style="stroke:#000000;stroke-width:1.5;"/><rect fill="none" height="605.4844" style="stroke:#000000;stroke-width:1.5;" width="1313" x="3" y="228.2734"/><text fill="#000000" font-family="sans-serif" font-size="13" font-weight="bold" lengthAdjust="spacing" textLength="16" x="18" y="242.7686">alt</text><text fill="#000000" font-family="sans-serif" font-size="11" font-weight="bold" lengthAdjust="spacing" textLength="66" x="79" y="241.6924">[Valid Input]</text><polygon fill="#181818" points="828.5,264.9766,838.5,268.9766,828.5,272.9766,832.5,268.9766" style="stroke:#181818;stroke-width:1.0;"/><line style="stroke:#181818;stroke-width:1.0;" x1="612.5" x2="834.5" y1="268.9766" y2="268.9766"/><text fill="#000000" font-family="sans-serif" font-size="13" lengthAdjust="spacing" textLength="109" x="619.5" y="264.1201">AddAsync(Patient)</text><polygon fill="#181818" points="1008,295.3281,1018,299.3281,1008,303.3281,1012,299.3281" style="stroke:#181818;stroke-width:1.0;"/><line style="stroke:#181818;stroke-width:1.0;" x1="850.5" x2="1014" y1="299.3281" y2="299.3281"/><text fill="#000000" font-family="sans-serif" font-size="13" lengthAdjust="spacing" textLength="77" x="857.5" y="294.4717">Insert Patient</text><polygon fill="#181818" points="623.5,325.6797,613.5,329.6797,623.5,333.6797,619.5,329.6797" style="stroke:#181818;stroke-width:1.0;"/><line style="stroke:#181818;stroke-width:1.0;stroke-dasharray:2.0,2.0;" x1="617.5" x2="844.5" y1="329.6797" y2="329.6797"/><text fill="#000000" font-family="sans-serif" font-size="13" lengthAdjust="spacing" textLength="126" x="629.5" y="324.8232">Return Patient with ID</text><line style="stroke:#181818;stroke-width:1.0;" x1="612.5" x2="654.5" y1="360.0313" y2="360.0313"/><line style="stroke:#181818;stroke-width:1.0;" x1="654.5" x2="654.5" y1="360.0313" y2="373.0313"/><line style="stroke:#181818;stroke-width:1.0;" x1="613.5" x2="654.5" y1="373.0313" y2="373.0313"/><polygon fill="#181818" points="623.5,369.0313,613.5,373.0313,623.5,377.0313,619.5,373.0313" style="stroke:#181818;stroke-width:1.0;"/><text fill="#000000" font-family="sans-serif" font-size="13" lengthAdjust="spacing" textLength="64" x="619.5" y="355.1748">AddPrefix()</text><polygon fill="#181818" points="833.5,399.3828,843.5,403.3828,833.5,407.3828,837.5,403.3828" style="stroke:#181818;stroke-width:1.0;"/><line style="stroke:#181818;stroke-width:1.0;" x1="612.5" x2="839.5" y1="403.3828" y2="403.3828"/><text fill="#000000" font-family="sans-serif" font-size="13" lengthAdjust="spacing" textLength="201" x="619.5" y="398.5264">CheckEmailUniqueness(dto.Email)</text><polygon fill="#181818" points="833.5,429.7344,843.5,433.7344,833.5,437.7344,837.5,433.7344" style="stroke:#181818;stroke-width:1.0;"/><line style="stroke:#181818;stroke-width:1.0;" x1="612.5" x2="839.5" y1="433.7344" y2="433.7344"/><text fill="#000000" font-family="sans-serif" font-size="13" lengthAdjust="spacing" textLength="209" x="619.5" y="428.8779">CheckPhoneUniqueness(dto.Phone)</text><path d="M3,448.7344 L64,448.7344 L64,457.0859 L54,467.0859 L3,467.0859 L3,448.7344 " fill="#EEEEEE" style="stroke:#000000;stroke-width:1.5;"/><rect fill="none" height="288.4844" style="stroke:#000000;stroke-width:1.5;" width="1303" x="3" y="448.7344"/><text fill="#000000" font-family="sans-serif" font-size="13" font-weight="bold" lengthAdjust="spacing" textLength="16" x="18" y="463.2295">alt</text><text fill="#000000" font-family="sans-serif" font-size="11" font-weight="bold" lengthAdjust="spacing" textLength="160" x="79" y="462.1533">[Email and Phone are Unique]</text><polygon fill="#181818" points="1008,485.4375,1018,489.4375,1008,493.4375,1012,489.4375" style="stroke:#181818;stroke-width:1.0;"/><line style="stroke:#181818;stroke-width:1.0;" x1="612.5" x2="1014" y1="489.4375" y2="489.4375"/><text fill="#000000" font-family="sans-serif" font-size="13" lengthAdjust="spacing" textLength="104" x="619.5" y="484.5811">CommitChanges()</text><polygon fill="#181818" points="1099,515.7891,1109,519.7891,1099,523.7891,1103,519.7891" style="stroke:#181818;stroke-width:1.0;"/><line style="stroke:#181818;stroke-width:1.0;" x1="612.5" x2="1105" y1="519.7891" y2="519.7891"/><text fill="#000000" font-family="sans-serif" font-size="13" lengthAdjust="spacing" textLength="198" x="619.5" y="514.9326">SendConfirmationEmail(dto.Email)</text><line style="stroke:#181818;stroke-width:1.0;" x1="1111" x2="1153" y1="550.1406" y2="550.1406"/><line style="stroke:#181818;stroke-width:1.0;" x1="1153" x2="1153" y1="550.1406" y2="563.1406"/><line style="stroke:#181818;stroke-width:1.0;" x1="1112" x2="1153" y1="563.1406" y2="563.1406"/><polygon fill="#181818" points="1122,559.1406,1112,563.1406,1122,567.1406,1118,563.1406" style="stroke:#181818;stroke-width:1.0;"/><text fill="#000000" font-family="sans-serif" font-size="13" lengthAdjust="spacing" textLength="123" x="1118" y="545.2842">Format email content</text><line style="stroke:#181818;stroke-width:1.0;" x1="1111" x2="1153" y1="593.4922" y2="593.4922"/><line style="stroke:#181818;stroke-width:1.0;" x1="1153" x2="1153" y1="593.4922" y2="606.4922"/><line style="stroke:#181818;stroke-width:1.0;" x1="1112" x2="1153" y1="606.4922" y2="606.4922"/><polygon fill="#181818" points="1122,602.4922,1112,606.4922,1122,610.4922,1118,606.4922" style="stroke:#181818;stroke-width:1.0;"/><text fill="#000000" font-family="sans-serif" font-size="13" lengthAdjust="spacing" textLength="176" x="1118" y="588.6357">Send email to registered email</text><polygon fill="#181818" points="11,632.8438,1,636.8438,11,640.8438,7,636.8438" style="stroke:#181818;stroke-width:1.0;"/><line style="stroke:#181818;stroke-width:1.0;stroke-dasharray:2.0,2.0;" x1="5" x2="601.5" y1="636.8438" y2="636.8438"/><text fill="#000000" font-family="sans-serif" font-size="13" lengthAdjust="spacing" textLength="180" x="17" y="631.9873">Response status 201 (Created)</text><line style="stroke:#000000;stroke-width:1.0;stroke-dasharray:2.0,2.0;" x1="3" x2="1306" y1="645.8438" y2="645.8438"/><text fill="#000000" font-family="sans-serif" font-size="11" font-weight="bold" lengthAdjust="spacing" textLength="117" x="8" y="657.2627">[Email already exists]</text><polygon fill="#181818" points="11,679.0313,1,683.0313,11,687.0313,7,683.0313" style="stroke:#181818;stroke-width:1.0;"/><line style="stroke:#181818;stroke-width:1.0;stroke-dasharray:2.0,2.0;" x1="5" x2="601.5" y1="683.0313" y2="683.0313"/><text fill="#000000" font-family="sans-serif" font-size="13" lengthAdjust="spacing" textLength="210" x="17" y="678.1748">Response status 400 (Bad Request)</text><line style="stroke:#000000;stroke-width:1.0;stroke-dasharray:2.0,2.0;" x1="3" x2="1306" y1="692.0313" y2="692.0313"/><text fill="#000000" font-family="sans-serif" font-size="11" font-weight="bold" lengthAdjust="spacing" textLength="170" x="8" y="703.4502">[Phone number already exists]</text><polygon fill="#181818" points="11,725.2188,1,729.2188,11,733.2188,7,729.2188" style="stroke:#181818;stroke-width:1.0;"/><line style="stroke:#181818;stroke-width:1.0;stroke-dasharray:2.0,2.0;" x1="5" x2="601.5" y1="729.2188" y2="729.2188"/><text fill="#000000" font-family="sans-serif" font-size="13" lengthAdjust="spacing" textLength="210" x="17" y="724.3623">Response status 400 (Bad Request)</text><line style="stroke:#000000;stroke-width:1.0;stroke-dasharray:2.0,2.0;" x1="3" x2="1316" y1="745.2188" y2="745.2188"/><text fill="#000000" font-family="sans-serif" font-size="11" font-weight="bold" lengthAdjust="spacing" textLength="74" x="8" y="756.6377">[Invalid Input]</text><line style="stroke:#181818;stroke-width:1.0;" x1="612.5" x2="654.5" y1="782.4063" y2="782.4063"/><line style="stroke:#181818;stroke-width:1.0;" x1="654.5" x2="654.5" y1="782.4063" y2="795.4063"/><line style="stroke:#181818;stroke-width:1.0;" x1="613.5" x2="654.5" y1="795.4063" y2="795.4063"/><polygon fill="#181818" points="623.5,791.4063,613.5,795.4063,623.5,799.4063,619.5,795.4063" style="stroke:#181818;stroke-width:1.0;"/><text fill="#000000" font-family="sans-serif" font-size="13" lengthAdjust="spacing" textLength="121" x="619.5" y="777.5498">LogValidationErrors()</text><polygon fill="#181818" points="11,821.7578,1,825.7578,11,829.7578,7,825.7578" style="stroke:#181818;stroke-width:1.0;"/><line style="stroke:#181818;stroke-width:1.0;stroke-dasharray:2.0,2.0;" x1="5" x2="601.5" y1="825.7578" y2="825.7578"/><text fill="#000000" font-family="sans-serif" font-size="13" lengthAdjust="spacing" textLength="210" x="17" y="820.9014">Response status 400 (Bad Request)</text><!--SRC=[hLHDRzim3BthLn0v9K1IP1-dOIZGEXiGeDY25jjTiPXOc2nv4fCs_twqhBXovdKTC9zayZr-F58YJGPXKdYKXF057s4ZIQCbs7Ytq-nRm1qUqS2xYH2DzAHBtKZsJnAmS9QyCmRz16I0vzzHz0FweounGjDv57UFZGkQd3z5Q6OTXUSWeIJ9hGpSrYgTebjjXzHFjTGchoSt2B6updg13x2spO6WIUee90O7cEwq3mHMrZW78_lZwklj74hcov90svsRGurAbz90fKFRrqomInzRsJFDH9QJAqZLSFeRfMx2oPPJHIwZzkMUaGFITsaqgu6nziGqr9cxXWJmbt4peVEaoJoBy3vvFXL8Nnw0uwbjb2wWftu-ez11tVT81s_xLNpKLC5w5OaAHzDVzZ4GRkDnfv-civURBIeiVyGT-6RrpmDQ3A7Lx2hQNaFULCxY1JdQPbrzhVOn64Yh87f0UeIEqkkI9Odo5QwkDHMLj7iCgOiBNBwwp7X0gtYHU3ThhjBPwBxifVq6lD_ZV7Pj0C1OSxlD-VZ-mcrhI4nou77FQuyUaqtqOJuk5eF9XyRnka0WIOS0RvTlODgzJgeh6mrxaug67Ue4-CInmoiZlbykONeh5JjOz41Pr6uYzb1l-VRzp-1M2H4phEtnptVlEUoTswUhsmxFU-VFS__Nz35rTcVExqLcobwVNm00]--></g></svg>