<?xml version="1.0" encoding="us-ascii" standalone="no"?><svg xmlns="http://www.w3.org/2000/svg" xmlns:xlink="http://www.w3.org/1999/xlink" contentStyleType="text/css" height="423px" preserveAspectRatio="none" style="width:379px;height:423px;background:#FFFFFF;" version="1.1" viewBox="0 0 379 423" width="379px" zoomAndPan="magnify"><defs/><g><text fill="#000000" font-family="sans-serif" font-size="14" font-weight="bold" lengthAdjust="spacing" textLength="231" x="75" y="29.5332">Remove an operation requisition</text><rect fill="#FFFFFF" height="101.8906" style="stroke:#181818;stroke-width:1.0;" width="10" x="327" y="214.2734"/><rect fill="none" height="94.8906" style="stroke:#000000;stroke-width:1.5;" width="362" x="10" y="229.2734"/><line style="stroke:#181818;stroke-width:0.5;stroke-dasharray:5.0,5.0;" x1="44" x2="44" y1="121.2188" y2="341.1641"/><line style="stroke:#181818;stroke-width:0.5;stroke-dasharray:5.0,5.0;" x1="332" x2="332" y1="121.2188" y2="341.1641"/><text fill="#000000" font-family="sans-serif" font-size="14" lengthAdjust="spacing" textLength="42" x="20" y="118.1426">Doctor</text><ellipse cx="44" cy="52.1094" fill="#E2E2F0" rx="8" ry="8" style="stroke:#181818;stroke-width:0.5;"/><path d="M44,60.1094 L44,87.1094 M31,68.1094 L57,68.1094 M44,87.1094 L31,102.1094 M44,87.1094 L57,102.1094 " fill="none" style="stroke:#181818;stroke-width:0.5;"/><text fill="#000000" font-family="sans-serif" font-size="14" lengthAdjust="spacing" textLength="42" x="20" y="354.6973">Doctor</text><ellipse cx="44" cy="366.2734" fill="#E2E2F0" rx="8" ry="8" style="stroke:#181818;stroke-width:0.5;"/><path d="M44,374.2734 L44,401.2734 M31,382.2734 L57,382.2734 M44,401.2734 L31,416.2734 M44,401.2734 L57,416.2734 " fill="none" style="stroke:#181818;stroke-width:0.5;"/><rect fill="#E2E2F0" height="31.6094" rx="2.5" ry="2.5" style="stroke:#181818;stroke-width:0.5;" width="60" x="302" y="88.6094"/><text fill="#000000" font-family="sans-serif" font-size="14" lengthAdjust="spacing" textLength="46" x="309" y="110.1426">System</text><rect fill="#E2E2F0" height="31.6094" rx="2.5" ry="2.5" style="stroke:#181818;stroke-width:0.5;" width="60" x="302" y="340.1641"/><text fill="#000000" font-family="sans-serif" font-size="14" lengthAdjust="spacing" textLength="46" x="309" y="361.6973">System</text><rect fill="#FFFFFF" height="101.8906" style="stroke:#181818;stroke-width:1.0;" width="10" x="327" y="214.2734"/><polygon fill="#181818" points="320,149.5703,330,153.5703,320,157.5703,324,153.5703" style="stroke:#181818;stroke-width:1.0;"/><line style="stroke:#181818;stroke-width:1.0;" x1="44" x2="326" y1="153.5703" y2="153.5703"/><text fill="#000000" font-family="sans-serif" font-size="13" lengthAdjust="spacing" textLength="246" x="51" y="148.7139">Request to remove an operation requisition</text><polygon fill="#181818" points="55,179.9219,45,183.9219,55,187.9219,51,183.9219" style="stroke:#181818;stroke-width:1.0;"/><line style="stroke:#181818;stroke-width:1.0;stroke-dasharray:2.0,2.0;" x1="49" x2="331" y1="183.9219" y2="183.9219"/><text fill="#000000" font-family="sans-serif" font-size="13" lengthAdjust="spacing" textLength="264" x="61" y="179.0654">you want to remove this operation requisition?</text><polygon fill="#181818" points="315,210.2734,325,214.2734,315,218.2734,319,214.2734" style="stroke:#181818;stroke-width:1.0;"/><line style="stroke:#181818;stroke-width:1.0;" x1="44" x2="321" y1="214.2734" y2="214.2734"/><text fill="#000000" font-family="sans-serif" font-size="13" lengthAdjust="spacing" textLength="66" x="51" y="209.417">yes remove</text><path d="M10,229.2734 L71,229.2734 L71,237.625 L61,247.625 L10,247.625 L10,229.2734 " fill="#EEEEEE" style="stroke:#000000;stroke-width:1.5;"/><rect fill="none" height="94.8906" style="stroke:#000000;stroke-width:1.5;" width="362" x="10" y="229.2734"/><text fill="#000000" font-family="sans-serif" font-size="13" font-weight="bold" lengthAdjust="spacing" textLength="16" x="25" y="243.7686">alt</text><text fill="#000000" font-family="sans-serif" font-size="11" font-weight="bold" lengthAdjust="spacing" textLength="113" x="86" y="242.6924">[Doctor not Allowed]</text><polygon fill="#181818" points="55,265.9766,45,269.9766,55,273.9766,51,269.9766" style="stroke:#181818;stroke-width:1.0;"/><line style="stroke:#181818;stroke-width:1.0;stroke-dasharray:2.0,2.0;" x1="49" x2="326" y1="269.9766" y2="269.9766"/><text fill="#000000" font-family="sans-serif" font-size="13" lengthAdjust="spacing" textLength="118" x="61" y="265.1201">response status 405</text><line style="stroke:#000000;stroke-width:1.0;stroke-dasharray:2.0,2.0;" x1="10" x2="372" y1="278.9766" y2="278.9766"/><text fill="#000000" font-family="sans-serif" font-size="11" font-weight="bold" lengthAdjust="spacing" textLength="237" x="15" y="290.3955">[Operation Request successfully removed]</text><polygon fill="#181818" points="55,312.1641,45,316.1641,55,320.1641,51,316.1641" style="stroke:#181818;stroke-width:1.0;"/><line style="stroke:#181818;stroke-width:1.0;stroke-dasharray:2.0,2.0;" x1="49" x2="331" y1="316.1641" y2="316.1641"/><text fill="#000000" font-family="sans-serif" font-size="13" lengthAdjust="spacing" textLength="118" x="61" y="311.3076">response status 200</text><!--SRC=[ZOz1IyH038Nl-HMFtWj5zBA88dWNrbyGseW3ivCwoUpIV- -CxQwiY9XBGaY-zvu7Zu9kBmSz2ZX1PydiGHEoV9HWeSqT4O-k6S_Q6isSFOnXvkJeNXTpENHWGnsfrdg5_g4jiCE-aiGShXNwfn0HjcgVVIMih1qMBJWrlM-8lmVx7VDumLnPgHInxRi52aTs-JBDqS-dIHrFCUf9ff-K-xvV0sMnMPC9pDcBuNQu0qciYvUBdNDeA-CePcybncNJ_Z_uPXXeaYkhaYRw1000]--></g></svg>