<?xml version="1.0" encoding="us-ascii" standalone="no"?><svg xmlns="http://www.w3.org/2000/svg" xmlns:xlink="http://www.w3.org/1999/xlink" contentStyleType="text/css" height="878px" preserveAspectRatio="none" style="width:1037px;height:878px;background:#FFFFFF;" version="1.1" viewBox="0 0 1037 878" width="1037px" zoomAndPan="magnify"><defs/><g><text fill="#000000" font-family="sans-serif" font-size="14" font-weight="bold" lengthAdjust="spacing" textLength="252" x="393.5" y="29.5332">Edit Existing Specialization - Level 2</text><rect fill="#FFFFFF" height="212.4609" style="stroke:#181818;stroke-width:1.0;" width="10" x="277.5" y="153.5703"/><rect fill="#FFFFFF" height="390.0547" style="stroke:#181818;stroke-width:1.0;" width="10" x="277.5" y="396.3828"/><rect fill="#FFFFFF" height="603.5156" style="stroke:#181818;stroke-width:1.0;" width="10" x="529.5" y="183.9219"/><rect fill="#FFFFFF" height="359.7031" style="stroke:#181818;stroke-width:1.0;" width="10" x="534.5" y="426.7344"/><rect fill="none" height="277" style="stroke:#000000;stroke-width:1.5;" width="1020" x="10" y="502.4375"/><line style="stroke:#181818;stroke-width:0.5;stroke-dasharray:5.0,5.0;" x1="42" x2="42" y1="121.2188" y2="796.4375"/><line style="stroke:#181818;stroke-width:0.5;stroke-dasharray:5.0,5.0;" x1="282" x2="282" y1="121.2188" y2="796.4375"/><line style="stroke:#181818;stroke-width:0.5;stroke-dasharray:5.0,5.0;" x1="534.5" x2="534.5" y1="121.2188" y2="796.4375"/><line style="stroke:#181818;stroke-width:0.5;stroke-dasharray:5.0,5.0;" x1="769.5" x2="769.5" y1="121.2188" y2="796.4375"/><line style="stroke:#181818;stroke-width:0.5;stroke-dasharray:5.0,5.0;" x1="982" x2="982" y1="121.2188" y2="796.4375"/><text fill="#000000" font-family="sans-serif" font-size="14" lengthAdjust="spacing" textLength="39" x="20" y="118.1426">Admin</text><ellipse cx="42.5" cy="52.1094" fill="#E2E2F0" rx="8" ry="8" style="stroke:#181818;stroke-width:0.5;"/><path d="M42.5,60.1094 L42.5,87.1094 M29.5,68.1094 L55.5,68.1094 M42.5,87.1094 L29.5,102.1094 M42.5,87.1094 L55.5,102.1094 " fill="none" style="stroke:#181818;stroke-width:0.5;"/><text fill="#000000" font-family="sans-serif" font-size="14" lengthAdjust="spacing" textLength="39" x="20" y="809.9707">Admin</text><ellipse cx="42.5" cy="821.5469" fill="#E2E2F0" rx="8" ry="8" style="stroke:#181818;stroke-width:0.5;"/><path d="M42.5,829.5469 L42.5,856.5469 M29.5,837.5469 L55.5,837.5469 M42.5,856.5469 L29.5,871.5469 M42.5,856.5469 L55.5,871.5469 " fill="none" style="stroke:#181818;stroke-width:0.5;"/><rect fill="#E2E2F0" height="31.6094" rx="2.5" ry="2.5" style="stroke:#181818;stroke-width:0.5;" width="113" x="226" y="88.6094"/><text fill="#000000" font-family="sans-serif" font-size="14" lengthAdjust="spacing" textLength="99" x="233" y="110.1426">SPA (Frontend)</text><rect fill="#E2E2F0" height="31.6094" rx="2.5" ry="2.5" style="stroke:#181818;stroke-width:0.5;" width="113" x="226" y="795.4375"/><text fill="#000000" font-family="sans-serif" font-size="14" lengthAdjust="spacing" textLength="99" x="233" y="816.9707">SPA (Frontend)</text><rect fill="#E2E2F0" height="31.6094" rx="2.5" ry="2.5" style="stroke:#181818;stroke-width:0.5;" width="76" x="496.5" y="88.6094"/><text fill="#000000" font-family="sans-serif" font-size="14" lengthAdjust="spacing" textLength="62" x="503.5" y="110.1426">&#171;System&#187;</text><rect fill="#E2E2F0" height="31.6094" rx="2.5" ry="2.5" style="stroke:#181818;stroke-width:0.5;" width="76" x="496.5" y="795.4375"/><text fill="#000000" font-family="sans-serif" font-size="14" lengthAdjust="spacing" textLength="62" x="503.5" y="816.9707">&#171;System&#187;</text><rect fill="#E2E2F0" height="31.6094" rx="2.5" ry="2.5" style="stroke:#181818;stroke-width:0.5;" width="138" x="700.5" y="88.6094"/><text fill="#000000" font-family="sans-serif" font-size="14" lengthAdjust="spacing" textLength="124" x="707.5" y="110.1426">SpecializationModel</text><rect fill="#E2E2F0" height="31.6094" rx="2.5" ry="2.5" style="stroke:#181818;stroke-width:0.5;" width="138" x="700.5" y="795.4375"/><text fill="#000000" font-family="sans-serif" font-size="14" lengthAdjust="spacing" textLength="124" x="707.5" y="816.9707">SpecializationModel</text><rect fill="#E2E2F0" height="31.6094" rx="2.5" ry="2.5" style="stroke:#181818;stroke-width:0.5;" width="75" x="945" y="88.6094"/><text fill="#000000" font-family="sans-serif" font-size="14" lengthAdjust="spacing" textLength="61" x="952" y="110.1426">Database</text><rect fill="#E2E2F0" height="31.6094" rx="2.5" ry="2.5" style="stroke:#181818;stroke-width:0.5;" width="75" x="945" y="795.4375"/><text fill="#000000" font-family="sans-serif" font-size="14" lengthAdjust="spacing" textLength="61" x="952" y="816.9707">Database</text><rect fill="#FFFFFF" height="212.4609" style="stroke:#181818;stroke-width:1.0;" width="10" x="277.5" y="153.5703"/><rect fill="#FFFFFF" height="390.0547" style="stroke:#181818;stroke-width:1.0;" width="10" x="277.5" y="396.3828"/><rect fill="#FFFFFF" height="603.5156" style="stroke:#181818;stroke-width:1.0;" width="10" x="529.5" y="183.9219"/><rect fill="#FFFFFF" height="359.7031" style="stroke:#181818;stroke-width:1.0;" width="10" x="534.5" y="426.7344"/><polygon fill="#181818" points="265.5,149.5703,275.5,153.5703,265.5,157.5703,269.5,153.5703" style="stroke:#181818;stroke-width:1.0;"/><line style="stroke:#181818;stroke-width:1.0;" x1="42.5" x2="271.5" y1="153.5703" y2="153.5703"/><text fill="#000000" font-family="sans-serif" font-size="13" lengthAdjust="spacing" textLength="176" x="49.5" y="148.7139">Search for specialization by ID</text><polygon fill="#181818" points="517.5,179.9219,527.5,183.9219,517.5,187.9219,521.5,183.9219" style="stroke:#181818;stroke-width:1.0;"/><line style="stroke:#181818;stroke-width:1.0;" x1="287.5" x2="523.5" y1="183.9219" y2="183.9219"/><text fill="#000000" font-family="sans-serif" font-size="13" lengthAdjust="spacing" textLength="163" x="294.5" y="179.0654">GET /api/specializations/{id}</text><polygon fill="#181818" points="757.5,210.2734,767.5,214.2734,757.5,218.2734,761.5,214.2734" style="stroke:#181818;stroke-width:1.0;"/><line style="stroke:#181818;stroke-width:1.0;" x1="539.5" x2="763.5" y1="214.2734" y2="214.2734"/><text fill="#000000" font-family="sans-serif" font-size="13" lengthAdjust="spacing" textLength="150" x="546.5" y="209.417">Fetch specialization by ID</text><polygon fill="#181818" points="970.5,240.625,980.5,244.625,970.5,248.625,974.5,244.625" style="stroke:#181818;stroke-width:1.0;"/><line style="stroke:#181818;stroke-width:1.0;" x1="769.5" x2="976.5" y1="244.625" y2="244.625"/><text fill="#000000" font-family="sans-serif" font-size="13" lengthAdjust="spacing" textLength="189" x="776.5" y="239.7686">Query specialization in database</text><polygon fill="#181818" points="780.5,270.9766,770.5,274.9766,780.5,278.9766,776.5,274.9766" style="stroke:#181818;stroke-width:1.0;"/><line style="stroke:#181818;stroke-width:1.0;stroke-dasharray:2.0,2.0;" x1="774.5" x2="981.5" y1="274.9766" y2="274.9766"/><text fill="#000000" font-family="sans-serif" font-size="13" lengthAdjust="spacing" textLength="157" x="786.5" y="270.1201">Return specialization entity</text><polygon fill="#181818" points="550.5,301.3281,540.5,305.3281,550.5,309.3281,546.5,305.3281" style="stroke:#181818;stroke-width:1.0;"/><line style="stroke:#181818;stroke-width:1.0;stroke-dasharray:2.0,2.0;" x1="544.5" x2="768.5" y1="305.3281" y2="305.3281"/><text fill="#000000" font-family="sans-serif" font-size="13" lengthAdjust="spacing" textLength="124" x="556.5" y="300.4717">Convert entity to DTO</text><polygon fill="#181818" points="298.5,331.6797,288.5,335.6797,298.5,339.6797,294.5,335.6797" style="stroke:#181818;stroke-width:1.0;"/><line style="stroke:#181818;stroke-width:1.0;stroke-dasharray:2.0,2.0;" x1="292.5" x2="528.5" y1="335.6797" y2="335.6797"/><text fill="#000000" font-family="sans-serif" font-size="13" lengthAdjust="spacing" textLength="218" x="304.5" y="330.8232">Response 200 (Specialization details)</text><polygon fill="#181818" points="53.5,362.0313,43.5,366.0313,53.5,370.0313,49.5,366.0313" style="stroke:#181818;stroke-width:1.0;"/><line style="stroke:#181818;stroke-width:1.0;stroke-dasharray:2.0,2.0;" x1="47.5" x2="281.5" y1="366.0313" y2="366.0313"/><text fill="#000000" font-family="sans-serif" font-size="13" lengthAdjust="spacing" textLength="168" x="59.5" y="361.1748">Display specialization details</text><polygon fill="#181818" points="265.5,392.3828,275.5,396.3828,265.5,400.3828,269.5,396.3828" style="stroke:#181818;stroke-width:1.0;"/><line style="stroke:#181818;stroke-width:1.0;" x1="42.5" x2="271.5" y1="396.3828" y2="396.3828"/><text fill="#000000" font-family="sans-serif" font-size="13" lengthAdjust="spacing" textLength="216" x="49.5" y="391.5264">Submit updated specialization details</text><polygon fill="#181818" points="522.5,422.7344,532.5,426.7344,522.5,430.7344,526.5,426.7344" style="stroke:#181818;stroke-width:1.0;"/><line style="stroke:#181818;stroke-width:1.0;" x1="287.5" x2="528.5" y1="426.7344" y2="426.7344"/><text fill="#000000" font-family="sans-serif" font-size="13" lengthAdjust="spacing" textLength="162" x="294.5" y="421.8779">PUT /api/specializations/{id}</text><polygon fill="#181818" points="757.5,453.0859,767.5,457.0859,757.5,461.0859,761.5,457.0859" style="stroke:#181818;stroke-width:1.0;"/><line style="stroke:#181818;stroke-width:1.0;" x1="544.5" x2="763.5" y1="457.0859" y2="457.0859"/><text fill="#000000" font-family="sans-serif" font-size="13" lengthAdjust="spacing" textLength="198" x="551.5" y="452.2295">Validate and update specialization</text><polygon fill="#181818" points="970.5,483.4375,980.5,487.4375,970.5,491.4375,974.5,487.4375" style="stroke:#181818;stroke-width:1.0;"/><line style="stroke:#181818;stroke-width:1.0;" x1="769.5" x2="976.5" y1="487.4375" y2="487.4375"/><text fill="#000000" font-family="sans-serif" font-size="13" lengthAdjust="spacing" textLength="155" x="776.5" y="482.5811">Check uniqueness of Code</text><path d="M10,502.4375 L71,502.4375 L71,510.7891 L61,520.7891 L10,520.7891 L10,502.4375 " fill="#EEEEEE" style="stroke:#000000;stroke-width:1.5;"/><rect fill="none" height="277" style="stroke:#000000;stroke-width:1.5;" width="1020" x="10" y="502.4375"/><text fill="#000000" font-family="sans-serif" font-size="13" font-weight="bold" lengthAdjust="spacing" textLength="16" x="25" y="516.9326">alt</text><text fill="#000000" font-family="sans-serif" font-size="11" font-weight="bold" lengthAdjust="spacing" textLength="91" x="86" y="515.8564">[Code is Unique]</text><polygon fill="#181818" points="970.5,539.1406,980.5,543.1406,970.5,547.1406,974.5,543.1406" style="stroke:#181818;stroke-width:1.0;"/><line style="stroke:#181818;stroke-width:1.0;" x1="769.5" x2="976.5" y1="543.1406" y2="543.1406"/><text fill="#000000" font-family="sans-serif" font-size="13" lengthAdjust="spacing" textLength="164" x="776.5" y="538.2842">Update specialization record</text><polygon fill="#181818" points="780.5,569.4922,770.5,573.4922,780.5,577.4922,776.5,573.4922" style="stroke:#181818;stroke-width:1.0;"/><line style="stroke:#181818;stroke-width:1.0;stroke-dasharray:2.0,2.0;" x1="774.5" x2="981.5" y1="573.4922" y2="573.4922"/><text fill="#000000" font-family="sans-serif" font-size="13" lengthAdjust="spacing" textLength="107" x="786.5" y="568.6357">Update successful</text><polygon fill="#181818" points="555.5,599.8438,545.5,603.8438,555.5,607.8438,551.5,603.8438" style="stroke:#181818;stroke-width:1.0;"/><line style="stroke:#181818;stroke-width:1.0;stroke-dasharray:2.0,2.0;" x1="549.5" x2="768.5" y1="603.8438" y2="603.8438"/><text fill="#000000" font-family="sans-serif" font-size="13" lengthAdjust="spacing" textLength="201" x="561.5" y="598.9873">Return updated specialization DTO</text><polygon fill="#181818" points="298.5,630.1953,288.5,634.1953,298.5,638.1953,294.5,634.1953" style="stroke:#181818;stroke-width:1.0;"/><line style="stroke:#181818;stroke-width:1.0;stroke-dasharray:2.0,2.0;" x1="292.5" x2="533.5" y1="634.1953" y2="634.1953"/><text fill="#000000" font-family="sans-serif" font-size="13" lengthAdjust="spacing" textLength="143" x="304.5" y="629.3389">Response 200 (Updated)</text><polygon fill="#181818" points="53.5,660.5469,43.5,664.5469,53.5,668.5469,49.5,664.5469" style="stroke:#181818;stroke-width:1.0;"/><line style="stroke:#181818;stroke-width:1.0;stroke-dasharray:2.0,2.0;" x1="47.5" x2="276.5" y1="664.5469" y2="664.5469"/><text fill="#000000" font-family="sans-serif" font-size="13" lengthAdjust="spacing" textLength="153" x="59.5" y="659.6904">Display success message</text><line style="stroke:#000000;stroke-width:1.0;stroke-dasharray:2.0,2.0;" x1="10" x2="1030" y1="673.5469" y2="673.5469"/><text fill="#000000" font-family="sans-serif" font-size="11" font-weight="bold" lengthAdjust="spacing" textLength="112" x="15" y="684.9658">[Code is Not Unique]</text><polygon fill="#181818" points="555.5,706.7344,545.5,710.7344,555.5,714.7344,551.5,710.7344" style="stroke:#181818;stroke-width:1.0;"/><line style="stroke:#181818;stroke-width:1.0;stroke-dasharray:2.0,2.0;" x1="549.5" x2="768.5" y1="710.7344" y2="710.7344"/><text fill="#000000" font-family="sans-serif" font-size="13" lengthAdjust="spacing" textLength="195" x="561.5" y="705.8779">Return error (Code already exists)</text><polygon fill="#181818" points="298.5,737.0859,288.5,741.0859,298.5,745.0859,294.5,741.0859" style="stroke:#181818;stroke-width:1.0;"/><line style="stroke:#181818;stroke-width:1.0;stroke-dasharray:2.0,2.0;" x1="292.5" x2="533.5" y1="741.0859" y2="741.0859"/><text fill="#000000" font-family="sans-serif" font-size="13" lengthAdjust="spacing" textLength="182" x="304.5" y="736.2295">Response 400 (Validation error)</text><polygon fill="#181818" points="53.5,767.4375,43.5,771.4375,53.5,775.4375,49.5,771.4375" style="stroke:#181818;stroke-width:1.0;"/><line style="stroke:#181818;stroke-width:1.0;stroke-dasharray:2.0,2.0;" x1="47.5" x2="276.5" y1="771.4375" y2="771.4375"/><text fill="#000000" font-family="sans-serif" font-size="13" lengthAdjust="spacing" textLength="130" x="59.5" y="766.5811">Display error message</text><!--SRC=[dLHDRzim3BthLn0v9GSZHR7J40HewxGOi8-kQNPdBAOLgiYUH0VpXlttKR8Jn6wImtmm3EizlaS-scpO4emMsZ0iVfd0nht0igB2e3M_aKtf88FFj2CBroEbiE3ImutU6gSgz6mAKw5Z62qVRs1yxql7vFHa11X0NlKnizco2KpR-RmzRyAWHa_tIwd99c1wwaDpP5nZe7IUtogLB44sZwhm4PQ4ldY5ZPWD_MxM3NpAOnzcXqp9PAH4PXE4-R1uXYbMPjhdXUaVe_yUySHy90WlsHFcFR58dfHh8OBDRmNulIRV387YNdTDAK5bHuMVY6llXWHoRBZPbpxulolTZZntny0bvC_VMgk7wJnHgAGbWkkhAnWFujR4Q6oOT2ETPLd7oaseBBuptk6LfjvGtoLIhxUoP7KbNP8-L-HyBe-h_ytbXu2ZAA3JdVv0Vf3FtIiLRr0xyxCcHo50kP6nQb9eEJs02R1AnmhawhDNfnJ0Kr5wdU23TFVukYX4QrFRuvg7zhiTE3E-675aNOgvrT6J13oRRUi2jdB35r9aXRvl-Ml99zeUMYJlvQiR9n9QJwWReFXh2PDB7Zz4ZrrKQRrZcSjcMwM3LQTxEzWCL_8V]--></g></svg>