<?xml version="1.0" encoding="us-ascii" standalone="no"?><svg xmlns="http://www.w3.org/2000/svg" xmlns:xlink="http://www.w3.org/1999/xlink" contentStyleType="text/css" height="439px" preserveAspectRatio="none" style="width:542px;height:439px;background:#FFFFFF;" version="1.1" viewBox="0 0 542 439" width="542px" zoomAndPan="magnify"><defs/><g><text fill="#000000" font-family="sans-serif" font-size="14" font-weight="bold" lengthAdjust="spacing" textLength="217" x="163.5" y="29.5332">Update Patient Medical Record</text><rect fill="#FFFFFF" height="179.1094" style="stroke:#181818;stroke-width:1.0;" width="10" x="234" y="153.5703"/><rect fill="#FFFFFF" height="148.7578" style="stroke:#181818;stroke-width:1.0;" width="10" x="481" y="183.9219"/><rect fill="none" height="141.7578" style="stroke:#000000;stroke-width:1.5;" width="525" x="10" y="198.9219"/><line style="stroke:#181818;stroke-width:0.5;stroke-dasharray:5.0,5.0;" x1="44" x2="44" y1="121.2188" y2="357.6797"/><line style="stroke:#181818;stroke-width:0.5;stroke-dasharray:5.0,5.0;" x1="238.5" x2="238.5" y1="121.2188" y2="357.6797"/><line style="stroke:#181818;stroke-width:0.5;stroke-dasharray:5.0,5.0;" x1="486" x2="486" y1="121.2188" y2="357.6797"/><text fill="#000000" font-family="sans-serif" font-size="14" lengthAdjust="spacing" textLength="42" x="20" y="118.1426">Doctor</text><ellipse cx="44" cy="52.1094" fill="#E2E2F0" rx="8" ry="8" style="stroke:#181818;stroke-width:0.5;"/><path d="M44,60.1094 L44,87.1094 M31,68.1094 L57,68.1094 M44,87.1094 L31,102.1094 M44,87.1094 L57,102.1094 " fill="none" style="stroke:#181818;stroke-width:0.5;"/><text fill="#000000" font-family="sans-serif" font-size="14" lengthAdjust="spacing" textLength="42" x="20" y="371.2129">Doctor</text><ellipse cx="44" cy="382.7891" fill="#E2E2F0" rx="8" ry="8" style="stroke:#181818;stroke-width:0.5;"/><path d="M44,390.7891 L44,417.7891 M31,398.7891 L57,398.7891 M44,417.7891 L31,432.7891 M44,417.7891 L57,432.7891 " fill="none" style="stroke:#181818;stroke-width:0.5;"/><rect fill="#E2E2F0" height="31.6094" rx="2.5" ry="2.5" style="stroke:#181818;stroke-width:0.5;" width="73" x="202.5" y="88.6094"/><text fill="#000000" font-family="sans-serif" font-size="14" lengthAdjust="spacing" textLength="59" x="209.5" y="110.1426">FrontEnd</text><rect fill="#E2E2F0" height="31.6094" rx="2.5" ry="2.5" style="stroke:#181818;stroke-width:0.5;" width="73" x="202.5" y="356.6797"/><text fill="#000000" font-family="sans-serif" font-size="14" lengthAdjust="spacing" textLength="59" x="209.5" y="378.2129">FrontEnd</text><rect fill="#E2E2F0" height="31.6094" rx="2.5" ry="2.5" style="stroke:#181818;stroke-width:0.5;" width="78" x="447" y="88.6094"/><text fill="#000000" font-family="sans-serif" font-size="14" lengthAdjust="spacing" textLength="64" x="454" y="110.1426">BackEnd2</text><rect fill="#E2E2F0" height="31.6094" rx="2.5" ry="2.5" style="stroke:#181818;stroke-width:0.5;" width="78" x="447" y="356.6797"/><text fill="#000000" font-family="sans-serif" font-size="14" lengthAdjust="spacing" textLength="64" x="454" y="378.2129">BackEnd2</text><rect fill="#FFFFFF" height="179.1094" style="stroke:#181818;stroke-width:1.0;" width="10" x="234" y="153.5703"/><rect fill="#FFFFFF" height="148.7578" style="stroke:#181818;stroke-width:1.0;" width="10" x="481" y="183.9219"/><polygon fill="#181818" points="222,149.5703,232,153.5703,222,157.5703,226,153.5703" style="stroke:#181818;stroke-width:1.0;"/><line style="stroke:#181818;stroke-width:1.0;" x1="44" x2="228" y1="153.5703" y2="153.5703"/><text fill="#000000" font-family="sans-serif" font-size="13" lengthAdjust="spacing" textLength="171" x="51" y="148.7139">update patient medical record</text><polygon fill="#181818" points="469,179.9219,479,183.9219,469,187.9219,473,183.9219" style="stroke:#181818;stroke-width:1.0;"/><line style="stroke:#181818;stroke-width:1.0;" x1="244" x2="475" y1="183.9219" y2="183.9219"/><text fill="#000000" font-family="sans-serif" font-size="13" lengthAdjust="spacing" textLength="218" x="251" y="179.0654">HTTP Request: PUT /medicalRecords</text><path d="M10,198.9219 L71,198.9219 L71,207.2734 L61,217.2734 L10,217.2734 L10,198.9219 " fill="#EEEEEE" style="stroke:#000000;stroke-width:1.5;"/><rect fill="none" height="141.7578" style="stroke:#000000;stroke-width:1.5;" width="525" x="10" y="198.9219"/><text fill="#000000" font-family="sans-serif" font-size="13" font-weight="bold" lengthAdjust="spacing" textLength="16" x="25" y="213.417">alt</text><text fill="#000000" font-family="sans-serif" font-size="11" font-weight="bold" lengthAdjust="spacing" textLength="103" x="86" y="212.3408">[User not Allowed]</text><polygon fill="#181818" points="255,235.625,245,239.625,255,243.625,251,239.625" style="stroke:#181818;stroke-width:1.0;"/><line style="stroke:#181818;stroke-width:1.0;stroke-dasharray:2.0,2.0;" x1="249" x2="480" y1="239.625" y2="239.625"/><text fill="#000000" font-family="sans-serif" font-size="13" lengthAdjust="spacing" textLength="61" x="261" y="234.7686">status 401</text><polygon fill="#181818" points="55,265.9766,45,269.9766,55,273.9766,51,269.9766" style="stroke:#181818;stroke-width:1.0;"/><line style="stroke:#181818;stroke-width:1.0;" x1="49" x2="233" y1="269.9766" y2="269.9766"/><text fill="#000000" font-family="sans-serif" font-size="13" lengthAdjust="spacing" textLength="61" x="61" y="265.1201">status 401</text><line style="stroke:#000000;stroke-width:1.0;stroke-dasharray:2.0,2.0;" x1="10" x2="535" y1="278.9766" y2="278.9766"/><polygon fill="#181818" points="255,298.3281,245,302.3281,255,306.3281,251,302.3281" style="stroke:#181818;stroke-width:1.0;"/><line style="stroke:#181818;stroke-width:1.0;stroke-dasharray:2.0,2.0;" x1="249" x2="480" y1="302.3281" y2="302.3281"/><text fill="#000000" font-family="sans-serif" font-size="13" lengthAdjust="spacing" textLength="61" x="261" y="297.4717">status 200</text><polygon fill="#181818" points="55,328.6797,45,332.6797,55,336.6797,51,332.6797" style="stroke:#181818;stroke-width:1.0;"/><line style="stroke:#181818;stroke-width:1.0;" x1="49" x2="238" y1="332.6797" y2="332.6797"/><text fill="#000000" font-family="sans-serif" font-size="13" lengthAdjust="spacing" textLength="61" x="61" y="327.8232">status 200</text><!--SRC=[VO_TIWKX58NlVOh5t4lJeQlXSA2ew2OOOkO1Dhel95FJFVNwEN-TJb22Y7xwhQKuyOncJ9Q4qPCu3e9djiwGnmkRc6sZ51c96VTnNfHAbCKPbwXURHvp3F8GR0CgA8akwHsPrmeF2zqsIgdLf4_rVeTf3KzR-DiMdfVmETfzp7nsrwbFkmSTdeQXhotV9oxIeHy7N6tFr-hb_FmxdBnWB9mHek3M-_Z9Lg6EAZzgVPON8PaARjhh1Q-TZthf_8EnBup_18Us_LEmCyiN__nrj7VdOBy0]--></g></svg>