<?xml version="1.0" encoding="us-ascii" standalone="no"?><svg xmlns="http://www.w3.org/2000/svg" xmlns:xlink="http://www.w3.org/1999/xlink" contentStyleType="text/css" height="358px" preserveAspectRatio="none" style="width:463px;height:358px;background:#FFFFFF;" version="1.1" viewBox="0 0 463 358" width="463px" zoomAndPan="magnify"><defs/><g><text fill="#000000" font-family="sans-serif" font-size="14" font-weight="bold" lengthAdjust="spacing" textLength="107" x="179.25" y="29.5332">Get All Patients</text><rect fill="#FFFFFF" height="121.4063" style="stroke:#181818;stroke-width:1.0;" width="10" x="191" y="139.5703"/><rect fill="#FFFFFF" height="60.7031" style="stroke:#181818;stroke-width:1.0;" width="10" x="316.5" y="169.9219"/><line style="stroke:#181818;stroke-width:0.5;stroke-dasharray:5.0,5.0;" x1="195.5" x2="195.5" y1="107.2188" y2="278.9766"/><line style="stroke:#181818;stroke-width:0.5;stroke-dasharray:5.0,5.0;" x1="321.5" x2="321.5" y1="107.2188" y2="278.9766"/><line style="stroke:#181818;stroke-width:0.5;stroke-dasharray:5.0,5.0;" x1="427.5" x2="427.5" y1="107.2188" y2="278.9766"/><rect fill="#E2E2F0" height="31.6094" rx="2.5" ry="2.5" style="stroke:#181818;stroke-width:0.5;" width="105" x="143.5" y="74.6094"/><text fill="#000000" font-family="sans-serif" font-size="14" lengthAdjust="spacing" textLength="91" x="150.5" y="96.1426">PatientService</text><rect fill="#E2E2F0" height="31.6094" rx="2.5" ry="2.5" style="stroke:#181818;stroke-width:0.5;" width="105" x="143.5" y="277.9766"/><text fill="#000000" font-family="sans-serif" font-size="14" lengthAdjust="spacing" textLength="91" x="150.5" y="299.5098">PatientService</text><rect fill="#E2E2F0" height="31.6094" rx="2.5" ry="2.5" style="stroke:#181818;stroke-width:0.5;" width="126" x="258.5" y="74.6094"/><text fill="#000000" font-family="sans-serif" font-size="14" lengthAdjust="spacing" textLength="112" x="265.5" y="96.1426">PatientRepository</text><rect fill="#E2E2F0" height="31.6094" rx="2.5" ry="2.5" style="stroke:#181818;stroke-width:0.5;" width="126" x="258.5" y="277.9766"/><text fill="#000000" font-family="sans-serif" font-size="14" lengthAdjust="spacing" textLength="112" x="265.5" y="299.5098">PatientRepository</text><text fill="#000000" font-family="sans-serif" font-size="14" lengthAdjust="spacing" textLength="61" x="394.5" y="104.1426">Database</text><path d="M410,53.6094 C410,43.6094 428,43.6094 428,43.6094 C428,43.6094 446,43.6094 446,53.6094 L446,79.6094 C446,89.6094 428,89.6094 428,89.6094 C428,89.6094 410,89.6094 410,79.6094 L410,53.6094 " fill="#E2E2F0" style="stroke:#181818;stroke-width:1.5;"/><path d="M410,53.6094 C410,63.6094 428,63.6094 428,63.6094 C428,63.6094 446,63.6094 446,53.6094 " fill="none" style="stroke:#181818;stroke-width:1.5;"/><text fill="#000000" font-family="sans-serif" font-size="14" lengthAdjust="spacing" textLength="61" x="394.5" y="292.5098">Database</text><path d="M410,305.5859 C410,295.5859 428,295.5859 428,295.5859 C428,295.5859 446,295.5859 446,305.5859 L446,331.5859 C446,341.5859 428,341.5859 428,341.5859 C428,341.5859 410,341.5859 410,331.5859 L410,305.5859 " fill="#E2E2F0" style="stroke:#181818;stroke-width:1.5;"/><path d="M410,305.5859 C410,315.5859 428,315.5859 428,315.5859 C428,315.5859 446,315.5859 446,305.5859 " fill="none" style="stroke:#181818;stroke-width:1.5;"/><rect fill="#FFFFFF" height="121.4063" style="stroke:#181818;stroke-width:1.0;" width="10" x="191" y="139.5703"/><rect fill="#FFFFFF" height="60.7031" style="stroke:#181818;stroke-width:1.0;" width="10" x="316.5" y="169.9219"/><polygon fill="#181818" points="179,135.5703,189,139.5703,179,143.5703,183,139.5703" style="stroke:#181818;stroke-width:1.0;"/><line style="stroke:#181818;stroke-width:1.0;" x1="0" x2="185" y1="139.5703" y2="139.5703"/><text fill="#000000" font-family="sans-serif" font-size="13" lengthAdjust="spacing" textLength="172" x="7" y="134.7139">HTTP Request: GET /patients</text><polygon fill="#181818" points="304.5,165.9219,314.5,169.9219,304.5,173.9219,308.5,169.9219" style="stroke:#181818;stroke-width:1.0;"/><line style="stroke:#181818;stroke-width:1.0;" x1="201" x2="310.5" y1="169.9219" y2="169.9219"/><text fill="#000000" font-family="sans-serif" font-size="13" lengthAdjust="spacing" textLength="41" x="208" y="165.0654">getAll()</text><polygon fill="#181818" points="416,196.2734,426,200.2734,416,204.2734,420,200.2734" style="stroke:#181818;stroke-width:1.0;"/><line style="stroke:#181818;stroke-width:1.0;" x1="326.5" x2="422" y1="200.2734" y2="200.2734"/><text fill="#000000" font-family="sans-serif" font-size="13" lengthAdjust="spacing" textLength="41" x="333.5" y="195.417">getAll()</text><polygon fill="#181818" points="212,226.625,202,230.625,212,234.625,208,230.625" style="stroke:#181818;stroke-width:1.0;"/><line style="stroke:#181818;stroke-width:1.0;stroke-dasharray:2.0,2.0;" x1="206" x2="320.5" y1="230.625" y2="230.625"/><text fill="#000000" font-family="sans-serif" font-size="13" lengthAdjust="spacing" textLength="80" x="218" y="225.7686">patientDtoList</text><polygon fill="#181818" points="11,256.9766,1,260.9766,11,264.9766,7,260.9766" style="stroke:#181818;stroke-width:1.0;"/><line style="stroke:#181818;stroke-width:1.0;stroke-dasharray:2.0,2.0;" x1="5" x2="195" y1="260.9766" y2="260.9766"/><text fill="#000000" font-family="sans-serif" font-size="13" lengthAdjust="spacing" textLength="80" x="17" y="256.1201">patientDtoList</text><!--SRC=[TK_B2i903BplLuGzwM7nNgGWLFJWeTJ-GDe62PIsxiQ2V-zstTO7cjDaCibCXAKbq0SIsBKjv2XCdJYjr81MkEO1Em4T-JFPaMlIW0xS4__K5JJqZgMtzo2rlbKD2bRel5aMKPWrbL8cZSSIE9Pb3WLTR-GaWSE-XCqGCociXKSKMgp1LyGcdKmIk93uFrRhC9jgMGeXPdPgJEhDlpO2_ueJhJFfJ-maA1hwlBWrve_wJJa7VW00]--></g></svg>