<?xml version="1.0" encoding="us-ascii" standalone="no"?><svg xmlns="http://www.w3.org/2000/svg" xmlns:xlink="http://www.w3.org/1999/xlink" contentStyleType="text/css" height="245px" preserveAspectRatio="none" style="width:362px;height:245px;background:#FFFFFF;" version="1.1" viewBox="0 0 362 245" width="362px" zoomAndPan="magnify"><defs/><g><line style="stroke:#181818;stroke-width:0.5;stroke-dasharray:5.0,5.0;" x1="27" x2="27" y1="82.6094" y2="163.3125"/><line style="stroke:#181818;stroke-width:0.5;stroke-dasharray:5.0,5.0;" x1="326.5" x2="326.5" y1="82.6094" y2="163.3125"/><text fill="#000000" font-family="sans-serif" font-size="14" lengthAdjust="spacing" textLength="39" x="5" y="79.5332">Admin</text><ellipse cx="27.5" cy="13.5" fill="#E2E2F0" rx="8" ry="8" style="stroke:#181818;stroke-width:0.5;"/><path d="M27.5,21.5 L27.5,48.5 M14.5,29.5 L40.5,29.5 M27.5,48.5 L14.5,63.5 M27.5,48.5 L40.5,63.5 " fill="none" style="stroke:#181818;stroke-width:0.5;"/><text fill="#000000" font-family="sans-serif" font-size="14" lengthAdjust="spacing" textLength="39" x="5" y="176.8457">Admin</text><ellipse cx="27.5" cy="188.4219" fill="#E2E2F0" rx="8" ry="8" style="stroke:#181818;stroke-width:0.5;"/><path d="M27.5,196.4219 L27.5,223.4219 M14.5,204.4219 L40.5,204.4219 M27.5,223.4219 L14.5,238.4219 M27.5,223.4219 L40.5,238.4219 " fill="none" style="stroke:#181818;stroke-width:0.5;"/><rect fill="#E2E2F0" height="31.6094" rx="2.5" ry="2.5" style="stroke:#181818;stroke-width:0.5;" width="60" x="296.5" y="50"/><text fill="#000000" font-family="sans-serif" font-size="14" lengthAdjust="spacing" textLength="46" x="303.5" y="71.5332">System</text><rect fill="#E2E2F0" height="31.6094" rx="2.5" ry="2.5" style="stroke:#181818;stroke-width:0.5;" width="60" x="296.5" y="162.3125"/><text fill="#000000" font-family="sans-serif" font-size="14" lengthAdjust="spacing" textLength="46" x="303.5" y="183.8457">System</text><polygon fill="#181818" points="314.5,110.9609,324.5,114.9609,314.5,118.9609,318.5,114.9609" style="stroke:#181818;stroke-width:1.0;"/><line style="stroke:#181818;stroke-width:1.0;" x1="27.5" x2="320.5" y1="114.9609" y2="114.9609"/><text fill="#000000" font-family="sans-serif" font-size="13" lengthAdjust="spacing" textLength="275" x="34.5" y="110.1045">Request to update operation (id, name, phases)</text><polygon fill="#181818" points="38.5,141.3125,28.5,145.3125,38.5,149.3125,34.5,145.3125" style="stroke:#181818;stroke-width:1.0;"/><line style="stroke:#181818;stroke-width:1.0;" x1="32.5" x2="325.5" y1="145.3125" y2="145.3125"/><text fill="#000000" font-family="sans-serif" font-size="13" lengthAdjust="spacing" textLength="211" x="44.5" y="140.4561">Operation type updated successfully</text><!--SRC=[JSn12W8n38NXVK_nc9N2U85P2E8113r1Q2CMEariqaLlBmwYRX_l_oYwD9pIccjGQfvZLggEwJRCUPr0XhDKRr8Ajn2s9mx7lt71bP-TpU62hecS8SgDF4l5BgSPbLQUeGyojdtufMze4nTSleKFvO-JO3r6DhltKaPu0G00]--></g></svg>