<?xml version="1.0" encoding="us-ascii" standalone="no"?><svg xmlns="http://www.w3.org/2000/svg" xmlns:xlink="http://www.w3.org/1999/xlink" contentStyleType="text/css" height="358px" preserveAspectRatio="none" style="width:457px;height:358px;background:#FFFFFF;" version="1.1" viewBox="0 0 457 358" width="457px" zoomAndPan="magnify"><defs/><g><text fill="#000000" font-family="sans-serif" font-size="14" font-weight="bold" lengthAdjust="spacing" textLength="105" x="177.25" y="29.5332">Get All Doctors</text><rect fill="#FFFFFF" height="121.4063" style="stroke:#181818;stroke-width:1.0;" width="10" x="188" y="139.5703"/><rect fill="#FFFFFF" height="60.7031" style="stroke:#181818;stroke-width:1.0;" width="10" x="311.5" y="169.9219"/><line style="stroke:#181818;stroke-width:0.5;stroke-dasharray:5.0,5.0;" x1="192.5" x2="192.5" y1="107.2188" y2="278.9766"/><line style="stroke:#181818;stroke-width:0.5;stroke-dasharray:5.0,5.0;" x1="316.5" x2="316.5" y1="107.2188" y2="278.9766"/><line style="stroke:#181818;stroke-width:0.5;stroke-dasharray:5.0,5.0;" x1="421.5" x2="421.5" y1="107.2188" y2="278.9766"/><rect fill="#E2E2F0" height="31.6094" rx="2.5" ry="2.5" style="stroke:#181818;stroke-width:0.5;" width="103" x="141.5" y="74.6094"/><text fill="#000000" font-family="sans-serif" font-size="14" lengthAdjust="spacing" textLength="89" x="148.5" y="96.1426">DoctorService</text><rect fill="#E2E2F0" height="31.6094" rx="2.5" ry="2.5" style="stroke:#181818;stroke-width:0.5;" width="103" x="141.5" y="277.9766"/><text fill="#000000" font-family="sans-serif" font-size="14" lengthAdjust="spacing" textLength="89" x="148.5" y="299.5098">DoctorService</text><rect fill="#E2E2F0" height="31.6094" rx="2.5" ry="2.5" style="stroke:#181818;stroke-width:0.5;" width="124" x="254.5" y="74.6094"/><text fill="#000000" font-family="sans-serif" font-size="14" lengthAdjust="spacing" textLength="110" x="261.5" y="96.1426">DoctorRepository</text><rect fill="#E2E2F0" height="31.6094" rx="2.5" ry="2.5" style="stroke:#181818;stroke-width:0.5;" width="124" x="254.5" y="277.9766"/><text fill="#000000" font-family="sans-serif" font-size="14" lengthAdjust="spacing" textLength="110" x="261.5" y="299.5098">DoctorRepository</text><text fill="#000000" font-family="sans-serif" font-size="14" lengthAdjust="spacing" textLength="61" x="388.5" y="104.1426">Database</text><path d="M404,53.6094 C404,43.6094 422,43.6094 422,43.6094 C422,43.6094 440,43.6094 440,53.6094 L440,79.6094 C440,89.6094 422,89.6094 422,89.6094 C422,89.6094 404,89.6094 404,79.6094 L404,53.6094 " fill="#E2E2F0" style="stroke:#181818;stroke-width:1.5;"/><path d="M404,53.6094 C404,63.6094 422,63.6094 422,63.6094 C422,63.6094 440,63.6094 440,53.6094 " fill="none" style="stroke:#181818;stroke-width:1.5;"/><text fill="#000000" font-family="sans-serif" font-size="14" lengthAdjust="spacing" textLength="61" x="388.5" y="292.5098">Database</text><path d="M404,305.5859 C404,295.5859 422,295.5859 422,295.5859 C422,295.5859 440,295.5859 440,305.5859 L440,331.5859 C440,341.5859 422,341.5859 422,341.5859 C422,341.5859 404,341.5859 404,331.5859 L404,305.5859 " fill="#E2E2F0" style="stroke:#181818;stroke-width:1.5;"/><path d="M404,305.5859 C404,315.5859 422,315.5859 422,315.5859 C422,315.5859 440,315.5859 440,305.5859 " fill="none" style="stroke:#181818;stroke-width:1.5;"/><rect fill="#FFFFFF" height="121.4063" style="stroke:#181818;stroke-width:1.0;" width="10" x="188" y="139.5703"/><rect fill="#FFFFFF" height="60.7031" style="stroke:#181818;stroke-width:1.0;" width="10" x="311.5" y="169.9219"/><polygon fill="#181818" points="176,135.5703,186,139.5703,176,143.5703,180,139.5703" style="stroke:#181818;stroke-width:1.0;"/><line style="stroke:#181818;stroke-width:1.0;" x1="0" x2="182" y1="139.5703" y2="139.5703"/><text fill="#000000" font-family="sans-serif" font-size="13" lengthAdjust="spacing" textLength="169" x="7" y="134.7139">HTTP Request: GET /doctors</text><polygon fill="#181818" points="299.5,165.9219,309.5,169.9219,299.5,173.9219,303.5,169.9219" style="stroke:#181818;stroke-width:1.0;"/><line style="stroke:#181818;stroke-width:1.0;" x1="198" x2="305.5" y1="169.9219" y2="169.9219"/><text fill="#000000" font-family="sans-serif" font-size="13" lengthAdjust="spacing" textLength="41" x="205" y="165.0654">getAll()</text><polygon fill="#181818" points="410,196.2734,420,200.2734,410,204.2734,414,200.2734" style="stroke:#181818;stroke-width:1.0;"/><line style="stroke:#181818;stroke-width:1.0;" x1="321.5" x2="416" y1="200.2734" y2="200.2734"/><text fill="#000000" font-family="sans-serif" font-size="13" lengthAdjust="spacing" textLength="41" x="328.5" y="195.417">getAll()</text><polygon fill="#181818" points="209,226.625,199,230.625,209,234.625,205,230.625" style="stroke:#181818;stroke-width:1.0;"/><line style="stroke:#181818;stroke-width:1.0;stroke-dasharray:2.0,2.0;" x1="203" x2="315.5" y1="230.625" y2="230.625"/><text fill="#000000" font-family="sans-serif" font-size="13" lengthAdjust="spacing" textLength="84" x="215" y="225.7686">doctorsDtoList</text><polygon fill="#181818" points="11,256.9766,1,260.9766,11,264.9766,7,260.9766" style="stroke:#181818;stroke-width:1.0;"/><line style="stroke:#181818;stroke-width:1.0;stroke-dasharray:2.0,2.0;" x1="5" x2="192" y1="260.9766" y2="260.9766"/><text fill="#000000" font-family="sans-serif" font-size="13" lengthAdjust="spacing" textLength="77" x="17" y="256.1201">doctorDtoList</text><!--SRC=[RK_12i8m3BttAq9FUYZUXmo4oJnuaBaVoBeWXM5d6mV-lLtNJIVczFBoalV2XZi2MHB3eUkWi9gjyrA87XqRRNgyCyY9lf8RZ2O9wC5F-9-iejvw4y0hAbreHOkC3VhWL2GKPsqZXChJhUnKrnUewF4apncKnnfsxPH7e6Op8DFY2w4ILlbeaS6DEBomsSRPMCjIZ32pOwFoOFsp4VbFcEHSi3qRpr7HqlgYs2krbi_gB-KS-0q0]--></g></svg>