<?xml version="1.0" encoding="us-ascii" standalone="no"?><svg xmlns="http://www.w3.org/2000/svg" xmlns:xlink="http://www.w3.org/1999/xlink" contentStyleType="text/css" height="350px" preserveAspectRatio="none" style="width:240px;height:350px;background:#FFFFFF;" version="1.1" viewBox="0 0 240 350" width="240px" zoomAndPan="magnify"><defs/><g><text fill="#000000" font-family="sans-serif" font-size="14" font-weight="bold" lengthAdjust="spacing" textLength="164" x="40" y="29.5332">Request to Create Staff</text><rect fill="#FFFFFF" height="160.2422" style="stroke:#181818;stroke-width:1.0;" width="10" x="159" y="126.1797"/><rect fill="none" height="94.8906" style="stroke:#000000;stroke-width:1.5;" width="209" x="3" y="184.5313"/><line style="stroke:#181818;stroke-width:0.5;stroke-dasharray:5.0,5.0;" x1="164" x2="164" y1="93.8281" y2="296.4219"/><rect fill="#E2E2F0" height="49.2188" rx="2.5" ry="2.5" style="stroke:#181818;stroke-width:0.5;" width="76" x="126" y="43.6094"/><text fill="#000000" font-family="sans-serif" font-size="14" lengthAdjust="spacing" textLength="62" x="133" y="65.1426">&#171;System&#187;</text><text fill="#000000" font-family="sans-serif" font-size="14" lengthAdjust="spacing" textLength="56" x="136" y="82.752">BackEnd</text><rect fill="#E2E2F0" height="49.2188" rx="2.5" ry="2.5" style="stroke:#181818;stroke-width:0.5;" width="76" x="126" y="295.4219"/><text fill="#000000" font-family="sans-serif" font-size="14" lengthAdjust="spacing" textLength="62" x="133" y="316.9551">&#171;System&#187;</text><text fill="#000000" font-family="sans-serif" font-size="14" lengthAdjust="spacing" textLength="56" x="136" y="334.5645">BackEnd</text><rect fill="#FFFFFF" height="160.2422" style="stroke:#181818;stroke-width:1.0;" width="10" x="159" y="126.1797"/><polygon fill="#181818" points="147,122.1797,157,126.1797,147,130.1797,151,126.1797" style="stroke:#181818;stroke-width:1.0;"/><line style="stroke:#181818;stroke-width:1.0;" x1="0" x2="153" y1="126.1797" y2="126.1797"/><text fill="#000000" font-family="sans-serif" font-size="13" lengthAdjust="spacing" textLength="133" x="7" y="121.3232">Request to Create staff</text><line style="stroke:#181818;stroke-width:1.0;" x1="169" x2="211" y1="156.5313" y2="156.5313"/><line style="stroke:#181818;stroke-width:1.0;" x1="211" x2="211" y1="156.5313" y2="169.5313"/><line style="stroke:#181818;stroke-width:1.0;" x1="170" x2="211" y1="169.5313" y2="169.5313"/><polygon fill="#181818" points="180,165.5313,170,169.5313,180,173.5313,176,169.5313" style="stroke:#181818;stroke-width:1.0;"/><text fill="#000000" font-family="sans-serif" font-size="13" lengthAdjust="spacing" textLength="57" x="176" y="151.6748">Add(DTO)</text><path d="M3,184.5313 L64,184.5313 L64,192.8828 L54,202.8828 L3,202.8828 L3,184.5313 " fill="#EEEEEE" style="stroke:#000000;stroke-width:1.5;"/><rect fill="none" height="94.8906" style="stroke:#000000;stroke-width:1.5;" width="209" x="3" y="184.5313"/><text fill="#000000" font-family="sans-serif" font-size="13" font-weight="bold" lengthAdjust="spacing" textLength="16" x="18" y="199.0264">alt</text><text fill="#000000" font-family="sans-serif" font-size="11" font-weight="bold" lengthAdjust="spacing" textLength="69" x="79" y="197.9502">[Invalid Data]</text><polygon fill="#181818" points="11,221.2344,1,225.2344,11,229.2344,7,225.2344" style="stroke:#181818;stroke-width:1.0;"/><line style="stroke:#181818;stroke-width:1.0;stroke-dasharray:2.0,2.0;" x1="5" x2="158" y1="225.2344" y2="225.2344"/><text fill="#000000" font-family="sans-serif" font-size="13" lengthAdjust="spacing" textLength="61" x="17" y="220.3779">status 400</text><line style="stroke:#000000;stroke-width:1.0;stroke-dasharray:2.0,2.0;" x1="3" x2="212" y1="234.2344" y2="234.2344"/><text fill="#000000" font-family="sans-serif" font-size="11" font-weight="bold" lengthAdjust="spacing" textLength="182" x="8" y="245.6533">[Operation Request successeful]</text><polygon fill="#181818" points="11,267.4219,1,271.4219,11,275.4219,7,271.4219" style="stroke:#181818;stroke-width:1.0;"/><line style="stroke:#181818;stroke-width:1.0;stroke-dasharray:2.0,2.0;" x1="5" x2="158" y1="271.4219" y2="271.4219"/><text fill="#000000" font-family="sans-serif" font-size="13" lengthAdjust="spacing" textLength="61" x="17" y="266.5654">status 200</text><!--SRC=[POun2y8m48Nt_8gZamu54ISf1RKEJWNhw78aLmZ6jFOk1V-z3HYnz4tl3T_74okE8BlIAn0BI0UdWL086i6spLIFWrXjU_G2ML4qRnPwbkNT7r4_pjvaW0pVhcBoCatOmrBBKQjGYntZJ6H2PlJ1c5LrgzUJ5Pt0nO_eh84A1HMa57d-Xqnw2GoxpKQHOuAwfm75TlvtXOFMn4njS3F9mh6DZkcQeSNR3m00]--></g></svg>