<?xml version="1.0" encoding="us-ascii" standalone="no"?><svg xmlns="http://www.w3.org/2000/svg" xmlns:xlink="http://www.w3.org/1999/xlink" contentStyleType="text/css" height="1287px" preserveAspectRatio="none" style="width:958px;height:1287px;background:#FFFFFF;" version="1.1" viewBox="0 0 958 1287" width="958px" zoomAndPan="magnify"><defs/><g><text fill="#000000" font-family="sans-serif" font-size="14" font-weight="bold" lengthAdjust="spacing" textLength="314" x="323.25" y="29.5332">Search and Manage Patient Profiles - Level 3</text><rect fill="#FFFFFF" height="1042.5" style="stroke:#181818;stroke-width:1.0;" width="10" x="284.5" y="153.5703"/><rect fill="#FFFFFF" height="587" style="stroke:#181818;stroke-width:1.0;" width="10" x="289.5" y="608.0703"/><rect fill="#FFFFFF" height="967.7969" style="stroke:#181818;stroke-width:1.0;" width="10" x="556.5" y="227.2734"/><rect fill="#FFFFFF" height="937.4453" style="stroke:#181818;stroke-width:1.0;" width="10" x="797.5" y="257.625"/><rect fill="none" height="259.6484" style="stroke:#000000;stroke-width:1.5;" width="837.5" x="10" y="319.0703"/><rect fill="none" height="534.6484" style="stroke:#000000;stroke-width:1.5;" width="941.5" x="10" y="653.4219"/><line style="stroke:#181818;stroke-width:0.5;stroke-dasharray:5.0,5.0;" x1="42" x2="42" y1="121.2188" y2="1205.0703"/><line style="stroke:#181818;stroke-width:0.5;stroke-dasharray:5.0,5.0;" x1="289.5" x2="289.5" y1="121.2188" y2="1205.0703"/><line style="stroke:#181818;stroke-width:0.5;stroke-dasharray:5.0,5.0;" x1="561" x2="561" y1="121.2188" y2="1205.0703"/><line style="stroke:#181818;stroke-width:0.5;stroke-dasharray:5.0,5.0;" x1="672" x2="672" y1="121.2188" y2="1205.0703"/><line style="stroke:#181818;stroke-width:0.5;stroke-dasharray:5.0,5.0;" x1="802.5" x2="802.5" y1="121.2188" y2="1205.0703"/><text fill="#000000" font-family="sans-serif" font-size="14" lengthAdjust="spacing" textLength="39" x="20" y="118.1426">Admin</text><ellipse cx="42.5" cy="52.1094" fill="#E2E2F0" rx="8" ry="8" style="stroke:#181818;stroke-width:0.5;"/><path d="M42.5,60.1094 L42.5,87.1094 M29.5,68.1094 L55.5,68.1094 M42.5,87.1094 L29.5,102.1094 M42.5,87.1094 L55.5,102.1094 " fill="none" style="stroke:#181818;stroke-width:0.5;"/><text fill="#000000" font-family="sans-serif" font-size="14" lengthAdjust="spacing" textLength="39" x="20" y="1218.6035">Admin</text><ellipse cx="42.5" cy="1230.1797" fill="#E2E2F0" rx="8" ry="8" style="stroke:#181818;stroke-width:0.5;"/><path d="M42.5,1238.1797 L42.5,1265.1797 M29.5,1246.1797 L55.5,1246.1797 M42.5,1265.1797 L29.5,1280.1797 M42.5,1265.1797 L55.5,1280.1797 " fill="none" style="stroke:#181818;stroke-width:0.5;"/><rect fill="#E2E2F0" height="49.2188" rx="2.5" ry="2.5" style="stroke:#181818;stroke-width:0.5;" width="176" x="201.5" y="71"/><text fill="#000000" font-family="sans-serif" font-size="14" lengthAdjust="spacing" textLength="83" x="248" y="92.5332">&#171;ViewModel&#187;</text><text fill="#000000" font-family="sans-serif" font-size="14" lengthAdjust="spacing" textLength="162" x="208.5" y="110.1426">SearchPatientComponent</text><rect fill="#E2E2F0" height="49.2188" rx="2.5" ry="2.5" style="stroke:#181818;stroke-width:0.5;" width="176" x="201.5" y="1204.0703"/><text fill="#000000" font-family="sans-serif" font-size="14" lengthAdjust="spacing" textLength="83" x="248" y="1225.6035">&#171;ViewModel&#187;</text><text fill="#000000" font-family="sans-serif" font-size="14" lengthAdjust="spacing" textLength="162" x="208.5" y="1243.2129">SearchPatientComponent</text><rect fill="#E2E2F0" height="49.2188" rx="2.5" ry="2.5" style="stroke:#181818;stroke-width:0.5;" width="105" x="509" y="71"/><text fill="#000000" font-family="sans-serif" font-size="14" lengthAdjust="spacing" textLength="78" x="522.5" y="92.5332">&#171;Controller&#187;</text><text fill="#000000" font-family="sans-serif" font-size="14" lengthAdjust="spacing" textLength="91" x="516" y="110.1426">PatientService</text><rect fill="#E2E2F0" height="49.2188" rx="2.5" ry="2.5" style="stroke:#181818;stroke-width:0.5;" width="105" x="509" y="1204.0703"/><text fill="#000000" font-family="sans-serif" font-size="14" lengthAdjust="spacing" textLength="78" x="522.5" y="1225.6035">&#171;Controller&#187;</text><text fill="#000000" font-family="sans-serif" font-size="14" lengthAdjust="spacing" textLength="91" x="516" y="1243.2129">PatientService</text><rect fill="#E2E2F0" height="49.2188" rx="2.5" ry="2.5" style="stroke:#181818;stroke-width:0.5;" width="96" x="624" y="71"/><text fill="#000000" font-family="sans-serif" font-size="14" lengthAdjust="spacing" textLength="54" x="645" y="92.5332">&#171;Model&#187;</text><text fill="#000000" font-family="sans-serif" font-size="14" lengthAdjust="spacing" textLength="82" x="631" y="110.1426">PatientModel</text><rect fill="#E2E2F0" height="49.2188" rx="2.5" ry="2.5" style="stroke:#181818;stroke-width:0.5;" width="96" x="624" y="1204.0703"/><text fill="#000000" font-family="sans-serif" font-size="14" lengthAdjust="spacing" textLength="54" x="645" y="1225.6035">&#171;Model&#187;</text><text fill="#000000" font-family="sans-serif" font-size="14" lengthAdjust="spacing" textLength="82" x="631" y="1243.2129">PatientModel</text><rect fill="#E2E2F0" height="31.6094" rx="2.5" ry="2.5" style="stroke:#181818;stroke-width:0.5;" width="70" x="767.5" y="88.6094"/><text fill="#000000" font-family="sans-serif" font-size="14" lengthAdjust="spacing" textLength="56" x="774.5" y="110.1426">BackEnd</text><rect fill="#E2E2F0" height="31.6094" rx="2.5" ry="2.5" style="stroke:#181818;stroke-width:0.5;" width="70" x="767.5" y="1204.0703"/><text fill="#000000" font-family="sans-serif" font-size="14" lengthAdjust="spacing" textLength="56" x="774.5" y="1225.6035">BackEnd</text><rect fill="#FFFFFF" height="1042.5" style="stroke:#181818;stroke-width:1.0;" width="10" x="284.5" y="153.5703"/><rect fill="#FFFFFF" height="587" style="stroke:#181818;stroke-width:1.0;" width="10" x="289.5" y="608.0703"/><rect fill="#FFFFFF" height="967.7969" style="stroke:#181818;stroke-width:1.0;" width="10" x="556.5" y="227.2734"/><rect fill="#FFFFFF" height="937.4453" style="stroke:#181818;stroke-width:1.0;" width="10" x="797.5" y="257.625"/><polygon fill="#181818" points="272.5,149.5703,282.5,153.5703,272.5,157.5703,276.5,153.5703" style="stroke:#181818;stroke-width:1.0;"/><line style="stroke:#181818;stroke-width:1.0;" x1="42.5" x2="278.5" y1="153.5703" y2="153.5703"/><text fill="#000000" font-family="sans-serif" font-size="13" lengthAdjust="spacing" textLength="209" x="49.5" y="148.7139">Search patient profiles (submit form)</text><line style="stroke:#181818;stroke-width:1.0;" x1="294.5" x2="336.5" y1="183.9219" y2="183.9219"/><line style="stroke:#181818;stroke-width:1.0;" x1="336.5" x2="336.5" y1="183.9219" y2="196.9219"/><line style="stroke:#181818;stroke-width:1.0;" x1="295.5" x2="336.5" y1="196.9219" y2="196.9219"/><polygon fill="#181818" points="305.5,192.9219,295.5,196.9219,305.5,200.9219,301.5,196.9219" style="stroke:#181818;stroke-width:1.0;"/><text fill="#000000" font-family="sans-serif" font-size="13" lengthAdjust="spacing" textLength="88" x="301.5" y="179.0654">Read form data</text><polygon fill="#181818" points="544.5,223.2734,554.5,227.2734,544.5,231.2734,548.5,227.2734" style="stroke:#181818;stroke-width:1.0;"/><line style="stroke:#181818;stroke-width:1.0;" x1="294.5" x2="550.5" y1="227.2734" y2="227.2734"/><text fill="#000000" font-family="sans-serif" font-size="13" lengthAdjust="spacing" textLength="243" x="301.5" y="222.417">HTTP GET /patients/search?queryParams</text><polygon fill="#181818" points="785.5,253.625,795.5,257.625,785.5,261.625,789.5,257.625" style="stroke:#181818;stroke-width:1.0;"/><line style="stroke:#181818;stroke-width:1.0;" x1="566.5" x2="791.5" y1="257.625" y2="257.625"/><text fill="#000000" font-family="sans-serif" font-size="13" lengthAdjust="spacing" textLength="174" x="573.5" y="252.7686">SearchPatients(queryParams)</text><rect fill="none" height="41.4453" style="stroke:#000000;stroke-width:1.5;" width="155" x="764.5" y="265.625"/><path d="M764.5,265.625 L826.5,265.625 L826.5,273.625 L816.5,283.625 L764.5,283.625 L764.5,265.625 " fill="#EEEEEE" style="stroke:#000000;stroke-width:2.0;"/><text fill="#000000" font-family="sans-serif" font-size="13" font-weight="bold" lengthAdjust="spacing" textLength="17" x="777.5" y="281.1201">ref</text><text fill="#000000" font-family="sans-serif" font-size="12" lengthAdjust="spacing" textLength="147" x="768.5" y="300.082">SearchPatientSprint1.puml</text><path d="M10,319.0703 L71,319.0703 L71,327.4219 L61,337.4219 L10,337.4219 L10,319.0703 " fill="#EEEEEE" style="stroke:#000000;stroke-width:1.5;"/><rect fill="none" height="259.6484" style="stroke:#000000;stroke-width:1.5;" width="837.5" x="10" y="319.0703"/><text fill="#000000" font-family="sans-serif" font-size="13" font-weight="bold" lengthAdjust="spacing" textLength="16" x="25" y="333.5654">alt</text><text fill="#000000" font-family="sans-serif" font-size="11" font-weight="bold" lengthAdjust="spacing" textLength="86" x="86" y="332.4893">[Profiles found]</text><polygon fill="#181818" points="577.5,355.7734,567.5,359.7734,577.5,363.7734,573.5,359.7734" style="stroke:#181818;stroke-width:1.0;"/><line style="stroke:#181818;stroke-width:1.0;" x1="571.5" x2="796.5" y1="359.7734" y2="359.7734"/><text fill="#000000" font-family="sans-serif" font-size="13" lengthAdjust="spacing" textLength="153" x="583.5" y="354.917">Return list of PatientModel</text><polygon fill="#181818" points="305.5,386.125,295.5,390.125,305.5,394.125,301.5,390.125" style="stroke:#181818;stroke-width:1.0;"/><line style="stroke:#181818;stroke-width:1.0;" x1="299.5" x2="555.5" y1="390.125" y2="390.125"/><text fill="#000000" font-family="sans-serif" font-size="13" lengthAdjust="spacing" textLength="124" x="311.5" y="385.2686">Return search results</text><line style="stroke:#181818;stroke-width:1.0;" x1="294.5" x2="336.5" y1="420.4766" y2="420.4766"/><line style="stroke:#181818;stroke-width:1.0;" x1="336.5" x2="336.5" y1="420.4766" y2="433.4766"/><line style="stroke:#181818;stroke-width:1.0;" x1="295.5" x2="336.5" y1="433.4766" y2="433.4766"/><polygon fill="#181818" points="305.5,429.4766,295.5,433.4766,305.5,437.4766,301.5,433.4766" style="stroke:#181818;stroke-width:1.0;"/><text fill="#000000" font-family="sans-serif" font-size="13" lengthAdjust="spacing" textLength="122" x="301.5" y="415.6201">Populate patients list</text><polygon fill="#181818" points="53.5,459.8281,43.5,463.8281,53.5,467.8281,49.5,463.8281" style="stroke:#181818;stroke-width:1.0;"/><line style="stroke:#181818;stroke-width:1.0;" x1="47.5" x2="283.5" y1="463.8281" y2="463.8281"/><text fill="#000000" font-family="sans-serif" font-size="13" lengthAdjust="spacing" textLength="129" x="59.5" y="458.9717">Display search results</text><line style="stroke:#000000;stroke-width:1.0;stroke-dasharray:2.0,2.0;" x1="10" x2="847.5" y1="472.8281" y2="472.8281"/><text fill="#000000" font-family="sans-serif" font-size="11" font-weight="bold" lengthAdjust="spacing" textLength="103" x="15" y="484.2471">[No profiles found]</text><polygon fill="#181818" points="577.5,506.0156,567.5,510.0156,577.5,514.0156,573.5,510.0156" style="stroke:#181818;stroke-width:1.0;"/><line style="stroke:#181818;stroke-width:1.0;" x1="571.5" x2="796.5" y1="510.0156" y2="510.0156"/><text fill="#000000" font-family="sans-serif" font-size="13" lengthAdjust="spacing" textLength="195" x="583.5" y="505.1592">Response status 404 (Not Found)</text><polygon fill="#181818" points="305.5,536.3672,295.5,540.3672,305.5,544.3672,301.5,540.3672" style="stroke:#181818;stroke-width:1.0;"/><line style="stroke:#181818;stroke-width:1.0;" x1="299.5" x2="555.5" y1="540.3672" y2="540.3672"/><text fill="#000000" font-family="sans-serif" font-size="13" lengthAdjust="spacing" textLength="116" x="311.5" y="535.5107">No results message</text><polygon fill="#181818" points="53.5,566.7188,43.5,570.7188,53.5,574.7188,49.5,570.7188" style="stroke:#181818;stroke-width:1.0;"/><line style="stroke:#181818;stroke-width:1.0;" x1="47.5" x2="283.5" y1="570.7188" y2="570.7188"/><text fill="#000000" font-family="sans-serif" font-size="13" lengthAdjust="spacing" textLength="142" x="59.5" y="565.8623">Show "No profiles found"</text><polygon fill="#181818" points="277.5,604.0703,287.5,608.0703,277.5,612.0703,281.5,608.0703" style="stroke:#181818;stroke-width:1.0;"/><line style="stroke:#181818;stroke-width:1.0;" x1="42.5" x2="283.5" y1="608.0703" y2="608.0703"/><text fill="#000000" font-family="sans-serif" font-size="13" lengthAdjust="spacing" textLength="163" x="49.5" y="603.2139">Select a patient from results</text><polygon fill="#181818" points="53.5,634.4219,43.5,638.4219,53.5,642.4219,49.5,638.4219" style="stroke:#181818;stroke-width:1.0;"/><line style="stroke:#181818;stroke-width:1.0;" x1="47.5" x2="288.5" y1="638.4219" y2="638.4219"/><text fill="#000000" font-family="sans-serif" font-size="13" lengthAdjust="spacing" textLength="208" x="59.5" y="633.5654">Display actions (Edit or Anonymize)</text><path d="M10,653.4219 L71,653.4219 L71,661.7734 L61,671.7734 L10,671.7734 L10,653.4219 " fill="#EEEEEE" style="stroke:#000000;stroke-width:1.5;"/><rect fill="none" height="534.6484" style="stroke:#000000;stroke-width:1.5;" width="941.5" x="10" y="653.4219"/><text fill="#000000" font-family="sans-serif" font-size="13" font-weight="bold" lengthAdjust="spacing" textLength="16" x="25" y="667.917">alt</text><text fill="#000000" font-family="sans-serif" font-size="11" font-weight="bold" lengthAdjust="spacing" textLength="67" x="86" y="666.8408">[Edit profile]</text><polygon fill="#181818" points="277.5,690.125,287.5,694.125,277.5,698.125,281.5,694.125" style="stroke:#181818;stroke-width:1.0;"/><line style="stroke:#181818;stroke-width:1.0;" x1="42.5" x2="283.5" y1="694.125" y2="694.125"/><text fill="#000000" font-family="sans-serif" font-size="13" lengthAdjust="spacing" textLength="101" x="49.5" y="689.2686">Select edit action</text><polygon fill="#181818" points="544.5,720.4766,554.5,724.4766,544.5,728.4766,548.5,724.4766" style="stroke:#181818;stroke-width:1.0;"/><line style="stroke:#181818;stroke-width:1.0;" x1="299.5" x2="550.5" y1="724.4766" y2="724.4766"/><text fill="#000000" font-family="sans-serif" font-size="13" lengthAdjust="spacing" textLength="138" x="306.5" y="719.6201">HTTP GET /patients/{id}</text><polygon fill="#181818" points="785.5,750.8281,795.5,754.8281,785.5,758.8281,789.5,754.8281" style="stroke:#181818;stroke-width:1.0;"/><line style="stroke:#181818;stroke-width:1.0;" x1="566.5" x2="791.5" y1="754.8281" y2="754.8281"/><text fill="#000000" font-family="sans-serif" font-size="13" lengthAdjust="spacing" textLength="145" x="573.5" y="749.9717">GetPatientById(patientId)</text><rect fill="none" height="41.4453" style="stroke:#000000;stroke-width:1.5;" width="180" x="764.5" y="762.8281"/><path d="M764.5,762.8281 L826.5,762.8281 L826.5,770.8281 L816.5,780.8281 L764.5,780.8281 L764.5,762.8281 " fill="#EEEEEE" style="stroke:#000000;stroke-width:2.0;"/><text fill="#000000" font-family="sans-serif" font-size="13" font-weight="bold" lengthAdjust="spacing" textLength="17" x="777.5" y="778.3232">ref</text><text fill="#000000" font-family="sans-serif" font-size="12" lengthAdjust="spacing" textLength="172" x="768.5" y="797.2852">EditExistingPatientSprint1.puml</text><polygon fill="#181818" points="577.5,827.625,567.5,831.625,577.5,835.625,573.5,831.625" style="stroke:#181818;stroke-width:1.0;"/><line style="stroke:#181818;stroke-width:1.0;" x1="571.5" x2="796.5" y1="831.625" y2="831.625"/><text fill="#000000" font-family="sans-serif" font-size="13" lengthAdjust="spacing" textLength="118" x="583.5" y="826.7686">Return PatientModel</text><polygon fill="#181818" points="310.5,857.9766,300.5,861.9766,310.5,865.9766,306.5,861.9766" style="stroke:#181818;stroke-width:1.0;"/><line style="stroke:#181818;stroke-width:1.0;" x1="304.5" x2="555.5" y1="861.9766" y2="861.9766"/><text fill="#000000" font-family="sans-serif" font-size="13" lengthAdjust="spacing" textLength="123" x="316.5" y="857.1201">Return patient details</text><line style="stroke:#181818;stroke-width:1.0;" x1="299.5" x2="341.5" y1="892.3281" y2="892.3281"/><line style="stroke:#181818;stroke-width:1.0;" x1="341.5" x2="341.5" y1="892.3281" y2="905.3281"/><line style="stroke:#181818;stroke-width:1.0;" x1="300.5" x2="341.5" y1="905.3281" y2="905.3281"/><polygon fill="#181818" points="310.5,901.3281,300.5,905.3281,310.5,909.3281,306.5,905.3281" style="stroke:#181818;stroke-width:1.0;"/><text fill="#000000" font-family="sans-serif" font-size="13" lengthAdjust="spacing" textLength="130" x="306.5" y="887.4717">Redirect to Edit Profile</text><polygon fill="#181818" points="53.5,931.6797,43.5,935.6797,53.5,939.6797,49.5,935.6797" style="stroke:#181818;stroke-width:1.0;"/><line style="stroke:#181818;stroke-width:1.0;" x1="47.5" x2="288.5" y1="935.6797" y2="935.6797"/><text fill="#000000" font-family="sans-serif" font-size="13" lengthAdjust="spacing" textLength="183" x="59.5" y="930.8232">Show "Patient edited" message</text><line style="stroke:#000000;stroke-width:1.0;stroke-dasharray:2.0,2.0;" x1="10" x2="951.5" y1="944.6797" y2="944.6797"/><text fill="#000000" font-family="sans-serif" font-size="11" font-weight="bold" lengthAdjust="spacing" textLength="109" x="15" y="956.0986">[Anonymize profile]</text><polygon fill="#181818" points="277.5,977.8672,287.5,981.8672,277.5,985.8672,281.5,981.8672" style="stroke:#181818;stroke-width:1.0;"/><line style="stroke:#181818;stroke-width:1.0;" x1="42.5" x2="283.5" y1="981.8672" y2="981.8672"/><text fill="#000000" font-family="sans-serif" font-size="13" lengthAdjust="spacing" textLength="125" x="49.5" y="977.0107">Select anonymization</text><polygon fill="#181818" points="544.5,1008.2188,554.5,1012.2188,544.5,1016.2188,548.5,1012.2188" style="stroke:#181818;stroke-width:1.0;"/><line style="stroke:#181818;stroke-width:1.0;" x1="299.5" x2="550.5" y1="1012.2188" y2="1012.2188"/><text fill="#000000" font-family="sans-serif" font-size="13" lengthAdjust="spacing" textLength="138" x="306.5" y="1007.3623">HTTP GET /patients/{id}</text><polygon fill="#181818" points="785.5,1038.5703,795.5,1042.5703,785.5,1046.5703,789.5,1042.5703" style="stroke:#181818;stroke-width:1.0;"/><line style="stroke:#181818;stroke-width:1.0;" x1="566.5" x2="791.5" y1="1042.5703" y2="1042.5703"/><text fill="#000000" font-family="sans-serif" font-size="13" lengthAdjust="spacing" textLength="135" x="573.5" y="1037.7139">DeletePatient(patientId)</text><rect fill="none" height="41.4453" style="stroke:#000000;stroke-width:1.5;" width="152" x="764.5" y="1050.5703"/><path d="M764.5,1050.5703 L826.5,1050.5703 L826.5,1058.5703 L816.5,1068.5703 L764.5,1068.5703 L764.5,1050.5703 " fill="#EEEEEE" style="stroke:#000000;stroke-width:2.0;"/><text fill="#000000" font-family="sans-serif" font-size="13" font-weight="bold" lengthAdjust="spacing" textLength="17" x="777.5" y="1066.0654">ref</text><text fill="#000000" font-family="sans-serif" font-size="12" lengthAdjust="spacing" textLength="144" x="768.5" y="1085.0273">DeletePatientSprint1.puml</text><polygon fill="#181818" points="577.5,1115.3672,567.5,1119.3672,577.5,1123.3672,573.5,1119.3672" style="stroke:#181818;stroke-width:1.0;"/><line style="stroke:#181818;stroke-width:1.0;" x1="571.5" x2="796.5" y1="1119.3672" y2="1119.3672"/><text fill="#000000" font-family="sans-serif" font-size="13" lengthAdjust="spacing" textLength="207" x="583.5" y="1114.5107">Response status 200 (Anonymized)</text><polygon fill="#181818" points="310.5,1145.7188,300.5,1149.7188,310.5,1153.7188,306.5,1149.7188" style="stroke:#181818;stroke-width:1.0;"/><line style="stroke:#181818;stroke-width:1.0;" x1="304.5" x2="555.5" y1="1149.7188" y2="1149.7188"/><text fill="#000000" font-family="sans-serif" font-size="13" lengthAdjust="spacing" textLength="132" x="316.5" y="1144.8623">Confirm anonymization</text><polygon fill="#181818" points="53.5,1176.0703,43.5,1180.0703,53.5,1184.0703,49.5,1180.0703" style="stroke:#181818;stroke-width:1.0;"/><line style="stroke:#181818;stroke-width:1.0;" x1="47.5" x2="288.5" y1="1180.0703" y2="1180.0703"/><text fill="#000000" font-family="sans-serif" font-size="13" lengthAdjust="spacing" textLength="218" x="59.5" y="1175.2139">Show "Patient anonymized" message</text><!--SRC=[dLN1Sfim4Btp5JkSy26Ds-QKoRZJ96wQcIR3s9wUUb7GacWg92e9fswd_rv920muXZQSXD3RtVVshJ3CS8HuZKHbJq04XJiYo2D2IWn3OI1LCcSSDPp05zmYX_Tn597CI0KVQS54L19bMCPAOW_75nTV6JxVIOfyiVWcwh0Xr9KiIYdi8WQY8MlUXW6kf31ASexAHGZODQejoz0ZTRqUujga0UBVFQ1mg_xnIv9zNmhgFp_ODGeQHPuFd2psjS4v16NA84VPo97ewg5W1dAfYfaJX6s9mGwjVP11n1KIwc50YI7zSu6RFVLviqdXPhc1qv1QdsfVoeSV5QfTIXGfz3vl8qeJmCOAl5eEGHUTT09qAcza0Fiep45kKVKstTEBj2uL4-Rjcx8gk3_XibbeH7Z7DxciGe2ce1xF5PfA2U1C6v0vT9ldGHr2VH4zh9R49jKLDze3ZkgUohBYZcaZg4zwYAbjS0xNJ9USx8Ova6k4UxbtmYH1RMDRZ3R4L1hEvcUGt4i3dnnkDaRIPWbPeK2jxLWUhtRz99yXFgWhZiQipJ4pG5fpvqeMBSyfImzbSkSjJqYMr8w5knw45Bk2_S9Pv1tXzqDrdiTOKUWEro4FEOzEoMz6_mn5tO_23PfWiSlTBKq2wZRqOTJxhlxbJsiP9Xwd9c3AxlzfywP150rXVCBdAwkTSXeQMMkUTZGVyKvpuplfqLwDZUMyuTjc_dC7IK2Gr_RmU1ElRGQ3eTwNUZZPorw4rtInFzFlvdD8Med6Xzh-tt9cB_y9VLxk3MbpxFjJJpZ5WvkyizNy7ZfRRRQ_]--></g></svg>