<?xml version="1.0" encoding="us-ascii" standalone="no"?><svg xmlns="http://www.w3.org/2000/svg" xmlns:xlink="http://www.w3.org/1999/xlink" contentStyleType="text/css" height="453px" preserveAspectRatio="none" style="width:524px;height:453px;background:#FFFFFF;" version="1.1" viewBox="0 0 524 453" width="524px" zoomAndPan="magnify"><defs/><g><text fill="#000000" font-family="sans-serif" font-size="14" font-weight="bold" lengthAdjust="spacing" textLength="180" x="173.25" y="29.5332">Search Medical Condition</text><rect fill="#FFFFFF" height="192.9453" style="stroke:#181818;stroke-width:1.0;" width="10" x="209.5" y="153.5703"/><rect fill="#FFFFFF" height="162.5938" style="stroke:#181818;stroke-width:1.0;" width="10" x="463.5" y="183.9219"/><rect fill="none" height="155.5938" style="stroke:#000000;stroke-width:1.5;" width="507.5" x="10" y="198.9219"/><line style="stroke:#181818;stroke-width:0.5;stroke-dasharray:5.0,5.0;" x1="42" x2="42" y1="121.2188" y2="371.5156"/><line style="stroke:#181818;stroke-width:0.5;stroke-dasharray:5.0,5.0;" x1="214" x2="214" y1="121.2188" y2="371.5156"/><line style="stroke:#181818;stroke-width:0.5;stroke-dasharray:5.0,5.0;" x1="468.5" x2="468.5" y1="121.2188" y2="371.5156"/><text fill="#000000" font-family="sans-serif" font-size="14" lengthAdjust="spacing" textLength="39" x="20" y="118.1426">Admin</text><ellipse cx="42.5" cy="52.1094" fill="#E2E2F0" rx="8" ry="8" style="stroke:#181818;stroke-width:0.5;"/><path d="M42.5,60.1094 L42.5,87.1094 M29.5,68.1094 L55.5,68.1094 M42.5,87.1094 L29.5,102.1094 M42.5,87.1094 L55.5,102.1094 " fill="none" style="stroke:#181818;stroke-width:0.5;"/><text fill="#000000" font-family="sans-serif" font-size="14" lengthAdjust="spacing" textLength="39" x="20" y="385.0488">Admin</text><ellipse cx="42.5" cy="396.625" fill="#E2E2F0" rx="8" ry="8" style="stroke:#181818;stroke-width:0.5;"/><path d="M42.5,404.625 L42.5,431.625 M29.5,412.625 L55.5,412.625 M42.5,431.625 L29.5,446.625 M42.5,431.625 L55.5,446.625 " fill="none" style="stroke:#181818;stroke-width:0.5;"/><rect fill="#E2E2F0" height="31.6094" rx="2.5" ry="2.5" style="stroke:#181818;stroke-width:0.5;" width="73" x="178" y="88.6094"/><text fill="#000000" font-family="sans-serif" font-size="14" lengthAdjust="spacing" textLength="59" x="185" y="110.1426">FrontEnd</text><rect fill="#E2E2F0" height="31.6094" rx="2.5" ry="2.5" style="stroke:#181818;stroke-width:0.5;" width="73" x="178" y="370.5156"/><text fill="#000000" font-family="sans-serif" font-size="14" lengthAdjust="spacing" textLength="59" x="185" y="392.0488">FrontEnd</text><rect fill="#E2E2F0" height="31.6094" rx="2.5" ry="2.5" style="stroke:#181818;stroke-width:0.5;" width="78" x="429.5" y="88.6094"/><text fill="#000000" font-family="sans-serif" font-size="14" lengthAdjust="spacing" textLength="64" x="436.5" y="110.1426">BackEnd2</text><rect fill="#E2E2F0" height="31.6094" rx="2.5" ry="2.5" style="stroke:#181818;stroke-width:0.5;" width="78" x="429.5" y="370.5156"/><text fill="#000000" font-family="sans-serif" font-size="14" lengthAdjust="spacing" textLength="64" x="436.5" y="392.0488">BackEnd2</text><rect fill="#FFFFFF" height="192.9453" style="stroke:#181818;stroke-width:1.0;" width="10" x="209.5" y="153.5703"/><rect fill="#FFFFFF" height="162.5938" style="stroke:#181818;stroke-width:1.0;" width="10" x="463.5" y="183.9219"/><polygon fill="#181818" points="197.5,149.5703,207.5,153.5703,197.5,157.5703,201.5,153.5703" style="stroke:#181818;stroke-width:1.0;"/><line style="stroke:#181818;stroke-width:1.0;" x1="42.5" x2="203.5" y1="153.5703" y2="153.5703"/><text fill="#000000" font-family="sans-serif" font-size="13" lengthAdjust="spacing" textLength="148" x="49.5" y="148.7139">Search Medical Condition</text><polygon fill="#181818" points="451.5,179.9219,461.5,183.9219,451.5,187.9219,455.5,183.9219" style="stroke:#181818;stroke-width:1.0;"/><line style="stroke:#181818;stroke-width:1.0;" x1="219.5" x2="457.5" y1="183.9219" y2="183.9219"/><text fill="#000000" font-family="sans-serif" font-size="13" lengthAdjust="spacing" textLength="225" x="226.5" y="179.0654">HTTP Request: GET /medicalCondition</text><path d="M10,198.9219 L71,198.9219 L71,207.2734 L61,217.2734 L10,217.2734 L10,198.9219 " fill="#EEEEEE" style="stroke:#000000;stroke-width:1.5;"/><rect fill="none" height="155.5938" style="stroke:#000000;stroke-width:1.5;" width="507.5" x="10" y="198.9219"/><text fill="#000000" font-family="sans-serif" font-size="13" font-weight="bold" lengthAdjust="spacing" textLength="16" x="25" y="213.417">alt</text><text fill="#000000" font-family="sans-serif" font-size="11" font-weight="bold" lengthAdjust="spacing" textLength="103" x="86" y="212.3408">[User not Allowed]</text><polygon fill="#181818" points="230.5,235.625,220.5,239.625,230.5,243.625,226.5,239.625" style="stroke:#181818;stroke-width:1.0;"/><line style="stroke:#181818;stroke-width:1.0;stroke-dasharray:2.0,2.0;" x1="224.5" x2="462.5" y1="239.625" y2="239.625"/><text fill="#000000" font-family="sans-serif" font-size="13" lengthAdjust="spacing" textLength="61" x="236.5" y="234.7686">status 401</text><polygon fill="#181818" points="53.5,265.9766,43.5,269.9766,53.5,273.9766,49.5,269.9766" style="stroke:#181818;stroke-width:1.0;"/><line style="stroke:#181818;stroke-width:1.0;" x1="47.5" x2="208.5" y1="269.9766" y2="269.9766"/><text fill="#000000" font-family="sans-serif" font-size="13" lengthAdjust="spacing" textLength="61" x="59.5" y="265.1201">status 401</text><line style="stroke:#000000;stroke-width:1.0;stroke-dasharray:2.0,2.0;" x1="10" x2="517.5" y1="278.9766" y2="278.9766"/><text fill="#000000" font-family="sans-serif" font-size="11" font-weight="bold" lengthAdjust="spacing" textLength="141" x="15" y="290.3955">[Medical Condition found]</text><polygon fill="#181818" points="230.5,312.1641,220.5,316.1641,230.5,320.1641,226.5,316.1641" style="stroke:#181818;stroke-width:1.0;"/><line style="stroke:#181818;stroke-width:1.0;stroke-dasharray:2.0,2.0;" x1="224.5" x2="462.5" y1="316.1641" y2="316.1641"/><text fill="#000000" font-family="sans-serif" font-size="13" lengthAdjust="spacing" textLength="61" x="236.5" y="311.3076">status 200</text><polygon fill="#181818" points="53.5,342.5156,43.5,346.5156,53.5,350.5156,49.5,346.5156" style="stroke:#181818;stroke-width:1.0;"/><line style="stroke:#181818;stroke-width:1.0;" x1="47.5" x2="213.5" y1="346.5156" y2="346.5156"/><text fill="#000000" font-family="sans-serif" font-size="13" lengthAdjust="spacing" textLength="61" x="59.5" y="341.6592">status 200</text><!--SRC=[VO_1IWCn54Nt-OhBx8DZwMeeXIhLRWIfumSyaYS6qsHCtkZlDqqTjMeDP95tmhdtYHFFQ1wOadd67LjdoECw1kl4nT0eCX8JLdRdWb839N763HG4pKsAGTR1Dg2CFD0flIBpKk2iqe-7KggAzB9yxt0kz93ftaYuMilLoyc03fk-lyUMNqVEqk5stUDYTpJy8VWC9Yzup9mGec3bVNndgr1EqI-q_j9d8HapvkrbnRNlGjU-tn3xpB-BuocEuL_jh6tFQITa-MJz7wDf8Gvs3m00]--></g></svg>