<?xml version="1.0" encoding="us-ascii" standalone="no"?><svg xmlns="http://www.w3.org/2000/svg" xmlns:xlink="http://www.w3.org/1999/xlink" contentStyleType="text/css" height="453px" preserveAspectRatio="none" style="width:412px;height:453px;background:#FFFFFF;" version="1.1" viewBox="0 0 412 453" width="412px" zoomAndPan="magnify"><defs/><g><text fill="#000000" font-family="sans-serif" font-size="14" font-weight="bold" lengthAdjust="spacing" textLength="101" x="156.5" y="29.5332">Search Allergy</text><rect fill="#FFFFFF" height="192.9453" style="stroke:#181818;stroke-width:1.0;" width="10" x="148" y="153.5703"/><rect fill="#FFFFFF" height="162.5938" style="stroke:#181818;stroke-width:1.0;" width="10" x="351" y="183.9219"/><rect fill="none" height="155.5938" style="stroke:#000000;stroke-width:1.5;" width="395" x="10" y="198.9219"/><line style="stroke:#181818;stroke-width:0.5;stroke-dasharray:5.0,5.0;" x1="44" x2="44" y1="121.2188" y2="371.5156"/><line style="stroke:#181818;stroke-width:0.5;stroke-dasharray:5.0,5.0;" x1="152.5" x2="152.5" y1="121.2188" y2="371.5156"/><line style="stroke:#181818;stroke-width:0.5;stroke-dasharray:5.0,5.0;" x1="356" x2="356" y1="121.2188" y2="371.5156"/><text fill="#000000" font-family="sans-serif" font-size="14" lengthAdjust="spacing" textLength="42" x="20" y="118.1426">Doctor</text><ellipse cx="44" cy="52.1094" fill="#E2E2F0" rx="8" ry="8" style="stroke:#181818;stroke-width:0.5;"/><path d="M44,60.1094 L44,87.1094 M31,68.1094 L57,68.1094 M44,87.1094 L31,102.1094 M44,87.1094 L57,102.1094 " fill="none" style="stroke:#181818;stroke-width:0.5;"/><text fill="#000000" font-family="sans-serif" font-size="14" lengthAdjust="spacing" textLength="42" x="20" y="385.0488">Doctor</text><ellipse cx="44" cy="396.625" fill="#E2E2F0" rx="8" ry="8" style="stroke:#181818;stroke-width:0.5;"/><path d="M44,404.625 L44,431.625 M31,412.625 L57,412.625 M44,431.625 L31,446.625 M44,431.625 L57,446.625 " fill="none" style="stroke:#181818;stroke-width:0.5;"/><rect fill="#E2E2F0" height="31.6094" rx="2.5" ry="2.5" style="stroke:#181818;stroke-width:0.5;" width="73" x="116.5" y="88.6094"/><text fill="#000000" font-family="sans-serif" font-size="14" lengthAdjust="spacing" textLength="59" x="123.5" y="110.1426">FrontEnd</text><rect fill="#E2E2F0" height="31.6094" rx="2.5" ry="2.5" style="stroke:#181818;stroke-width:0.5;" width="73" x="116.5" y="370.5156"/><text fill="#000000" font-family="sans-serif" font-size="14" lengthAdjust="spacing" textLength="59" x="123.5" y="392.0488">FrontEnd</text><rect fill="#E2E2F0" height="31.6094" rx="2.5" ry="2.5" style="stroke:#181818;stroke-width:0.5;" width="78" x="317" y="88.6094"/><text fill="#000000" font-family="sans-serif" font-size="14" lengthAdjust="spacing" textLength="64" x="324" y="110.1426">BackEnd2</text><rect fill="#E2E2F0" height="31.6094" rx="2.5" ry="2.5" style="stroke:#181818;stroke-width:0.5;" width="78" x="317" y="370.5156"/><text fill="#000000" font-family="sans-serif" font-size="14" lengthAdjust="spacing" textLength="64" x="324" y="392.0488">BackEnd2</text><rect fill="#FFFFFF" height="192.9453" style="stroke:#181818;stroke-width:1.0;" width="10" x="148" y="153.5703"/><rect fill="#FFFFFF" height="162.5938" style="stroke:#181818;stroke-width:1.0;" width="10" x="351" y="183.9219"/><polygon fill="#181818" points="136,149.5703,146,153.5703,136,157.5703,140,153.5703" style="stroke:#181818;stroke-width:1.0;"/><line style="stroke:#181818;stroke-width:1.0;" x1="44" x2="142" y1="153.5703" y2="153.5703"/><text fill="#000000" font-family="sans-serif" font-size="13" lengthAdjust="spacing" textLength="85" x="51" y="148.7139">Search Allergy</text><polygon fill="#181818" points="339,179.9219,349,183.9219,339,187.9219,343,183.9219" style="stroke:#181818;stroke-width:1.0;"/><line style="stroke:#181818;stroke-width:1.0;" x1="158" x2="345" y1="183.9219" y2="183.9219"/><text fill="#000000" font-family="sans-serif" font-size="13" lengthAdjust="spacing" textLength="174" x="165" y="179.0654">HTTP Request: GET /allergies</text><path d="M10,198.9219 L71,198.9219 L71,207.2734 L61,217.2734 L10,217.2734 L10,198.9219 " fill="#EEEEEE" style="stroke:#000000;stroke-width:1.5;"/><rect fill="none" height="155.5938" style="stroke:#000000;stroke-width:1.5;" width="395" x="10" y="198.9219"/><text fill="#000000" font-family="sans-serif" font-size="13" font-weight="bold" lengthAdjust="spacing" textLength="16" x="25" y="213.417">alt</text><text fill="#000000" font-family="sans-serif" font-size="11" font-weight="bold" lengthAdjust="spacing" textLength="103" x="86" y="212.3408">[User not Allowed]</text><polygon fill="#181818" points="169,235.625,159,239.625,169,243.625,165,239.625" style="stroke:#181818;stroke-width:1.0;"/><line style="stroke:#181818;stroke-width:1.0;stroke-dasharray:2.0,2.0;" x1="163" x2="350" y1="239.625" y2="239.625"/><text fill="#000000" font-family="sans-serif" font-size="13" lengthAdjust="spacing" textLength="61" x="175" y="234.7686">status 401</text><polygon fill="#181818" points="55,265.9766,45,269.9766,55,273.9766,51,269.9766" style="stroke:#181818;stroke-width:1.0;"/><line style="stroke:#181818;stroke-width:1.0;" x1="49" x2="147" y1="269.9766" y2="269.9766"/><text fill="#000000" font-family="sans-serif" font-size="13" lengthAdjust="spacing" textLength="61" x="61" y="265.1201">status 401</text><line style="stroke:#000000;stroke-width:1.0;stroke-dasharray:2.0,2.0;" x1="10" x2="405" y1="278.9766" y2="278.9766"/><text fill="#000000" font-family="sans-serif" font-size="11" font-weight="bold" lengthAdjust="spacing" textLength="82" x="15" y="290.3955">[Allergy found]</text><polygon fill="#181818" points="169,312.1641,159,316.1641,169,320.1641,165,316.1641" style="stroke:#181818;stroke-width:1.0;"/><line style="stroke:#181818;stroke-width:1.0;stroke-dasharray:2.0,2.0;" x1="163" x2="350" y1="316.1641" y2="316.1641"/><text fill="#000000" font-family="sans-serif" font-size="13" lengthAdjust="spacing" textLength="61" x="175" y="311.3076">status 200</text><polygon fill="#181818" points="55,342.5156,45,346.5156,55,350.5156,51,346.5156" style="stroke:#181818;stroke-width:1.0;"/><line style="stroke:#181818;stroke-width:1.0;" x1="49" x2="152" y1="346.5156" y2="346.5156"/><text fill="#000000" font-family="sans-serif" font-size="13" lengthAdjust="spacing" textLength="61" x="61" y="341.6592">status 200</text><!--SRC=[VO_1Ri8m44Jl_efHxXO1SOeGKYie7AisVC0gsHQhbXtiJQl-FOuXXVI09Skon_DcLenOHl7E59eZdgpbyFbRA6h41spyS2ZLKH3Jc8wSe7W9tidMjGKe8dOqLP-f-KhY8glNYrBgGjBhzB_2D6p8Cjyad65fw_LeH8LzNR_YZKyzHwcmszQOKVOPZZVdNn1PmI5oWFCo1FWVRXNIIjoLrZTk598-ObdEitpfjzAvtvt6Dl9O51- -TmzfYxAyes6A6yMM9mF_UneduM6QCm00]--></g></svg>